<svg xmlns="http://www.w3.org/2000/svg" viewBox="0 0 845.6 582.9">
  <defs>
    <style>
      .a {
        fill: #e5e5e5;
      }

      .b {
        fill: red;
      }

      .c, .d, .i {
        font-size: 24px;
        fill: #ababab;
        font-family: Montserrat-Black, Montserrat;
        font-weight: 800;
      }

      .c {
        letter-spacing: 0.12em;
      }

      .d {
        letter-spacing: 0.12em;
      }

      .e {
        fill: #3f8e00;
      }

      .f {
        fill: #802600;
      }

      .g {
        fill: #b2a792;
      }

      .h {
        fill: #fff;
      }

      .i {
        letter-spacing: 0.1em;
      }

      .j {
        fill: #c8c8c8;
      }

      .k {
        fill: #aae5e5;
      }
    </style>
  </defs>
  <g>
    <path class="a" d="M8.3,117,5,110.6C41.6,92.1,97,81.5,156.9,81.5c47.9,0,93.8,6.9,129.1,19.5l-2.4,6.7c-34.6-12.2-79.6-19-126.7-19C98.1,88.7,43.9,99,8.3,117Z"/>
    <path class="a" d="M786,122c-35.6-18-89.8-28.3-148.6-28.3-47.1,0-92.1,6.8-126.7,19.1l-2.4-6.8c35.3-12.6,81.2-19.5,129.1-19.5,59.9,0,115.3,10.6,151.9,29.1Z"/>
    <rect class="b" x="378.9" y="91.1" width="50" height="12"/>
    <rect class="b" x="378.9" y="71.1" width="50" height="12"/>
    <text class="c" transform="translate(599.8 260.3) scale(0.96 1)">BIRCH</text>
    <text class="d" transform="translate(60.2 255.3) scale(0.96 1)">PINE TREES</text>
    <polygon class="e" points="99 120 68.9 87.7 38.8 120 32.9 114.5 68.9 76 104.8 114.5 99 120"/>
    <polygon class="e" points="99 141.4 68.9 109.1 38.8 141.4 32.9 135.9 68.9 97.4 104.8 135.9 99 141.4"/>
    <polygon class="e" points="146.5 75.9 116.4 43.6 86.3 75.9 80.4 70.4 116.4 31.9 152.3 70.4 146.5 75.9"/>
    <polygon class="e" points="146.5 97.3 116.4 65 86.3 97.3 80.4 91.8 116.4 53.3 152.3 91.8 146.5 97.3"/>
    <polygon class="e" points="232 65.4 201.9 33.1 171.8 65.4 165.9 59.9 201.9 21.4 237.8 59.9 232 65.4"/>
    <polygon class="e" points="232 86.8 201.9 54.5 171.8 86.8 165.9 81.3 201.9 42.8 237.8 81.3 232 86.8"/>
    <polygon class="e" points="269.5 170.4 239.4 138.1 209.3 170.4 203.4 164.9 239.4 126.4 275.3 164.9 269.5 170.4"/>
    <polygon class="e" points="269.5 191.8 239.4 159.5 209.3 191.8 203.4 186.3 239.4 147.8 275.3 186.3 269.5 191.8"/>
    <rect class="f" x="64.9" y="65.1" width="8" height="90"/>
    <rect class="f" x="112.4" y="20.6" width="8" height="91.54"/>
    <rect class="f" x="235.4" y="116.1" width="8" height="90.06"/>
    <rect class="g" x="572.2" y="32.1" width="8" height="90.06"/>
    <rect class="g" x="661.9" y="73.7" width="8" height="90.06"/>
    <rect class="g" x="723.2" y="33.1" width="8" height="90.06"/>
    <rect class="g" x="615.9" y="121.1" width="8" height="90.06"/>
    <rect class="f" x="197.9" y="11.6" width="8" height="86.86"/>
    <polygon class="e" points="99 98.6 68.9 66.3 38.8 98.6 32.9 93.1 68.9 54.6 104.8 93.1 99 98.6"/>
    <polygon class="e" points="146.5 54.5 116.4 22.2 86.3 54.5 80.4 49 116.4 10.5 152.3 49 146.5 54.5"/>
    <polygon class="e" points="232 44 201.9 11.7 171.8 44 165.9 38.5 201.9 0 237.8 38.5 232 44"/>
    <polygon class="e" points="269.5 149 239.4 116.7 209.3 149 203.4 143.5 239.4 105 275.3 143.5 269.5 149"/>
    <g>
      <path class="h" d="M600.8,24.7A25.4,25.4,0,1,1,568.7,8.4,25.4,25.4,0,0,1,600.8,24.7Z"/>
      <path class="a" d="M576.6,61.5A29,29,0,1,1,589.8,6.7a28.7,28.7,0,0,1,14.4,16.9h0a29,29,0,0,1-18.6,36.5A28.2,28.2,0,0,1,576.6,61.5Zm0-50.8a21.8,21.8,0,1,0,20.7,15.1,21.3,21.3,0,0,0-10.8-12.7A21.6,21.6,0,0,0,576.6,10.7Z"/>
    </g>
    <g>
      <path class="h" d="M695.6,75.8a31.2,31.2,0,1,1-39.4-20A31.4,31.4,0,0,1,695.6,75.8Z"/>
      <path class="a" d="M665.8,120.3a34.8,34.8,0,0,1-33-24.1,34,34,0,0,1,2.1-26.5,34.8,34.8,0,0,1,64.1,5h0a34.9,34.9,0,0,1-22.4,43.9A35.9,35.9,0,0,1,665.8,120.3Zm.1-62.4A27.7,27.7,0,0,0,639.6,94a27.8,27.8,0,0,0,13.8,16.1A27.6,27.6,0,0,0,692.1,77h0A27.5,27.5,0,0,0,665.9,57.9Z"/>
    </g>
    <g>
      <path class="h" d="M606.1,56.4A17.4,17.4,0,1,1,588.7,39,17.3,17.3,0,0,1,606.1,56.4Z"/>
      <path class="a" d="M588.7,77.3a21,21,0,1,1,21-20.9A21,21,0,0,1,588.7,77.3Zm0-34.7a13.8,13.8,0,1,0,13.8,13.8A13.8,13.8,0,0,0,588.7,42.6Z"/>
    </g>
    <g>
      <path class="h" d="M637.2,127.4A17.4,17.4,0,1,1,619.9,110,17.2,17.2,0,0,1,637.2,127.4Z"/>
      <path class="a" d="M619.9,148.3a21,21,0,1,1,20.9-20.9A21,21,0,0,1,619.9,148.3Zm0-34.7a13.8,13.8,0,1,0,0,27.5,13.8,13.8,0,0,0,0-27.5Z"/>
    </g>
    <g>
      <path class="h" d="M752.2,39a22.1,22.1,0,1,1-22.1-22A22.1,22.1,0,0,1,752.2,39Z"/>
      <path class="a" d="M730.1,64.7A25.7,25.7,0,1,1,755.8,39,25.7,25.7,0,0,1,730.1,64.7Zm0-44.1A18.5,18.5,0,1,0,748.6,39,18.4,18.4,0,0,0,730.1,20.6Z"/>
    </g>
    <g>
      <path class="h" d="M567.7,51a13.9,13.9,0,1,1-17.5-8.9A13.9,13.9,0,0,1,567.7,51Z"/>
      <path class="a" d="M554.5,72.8a17.3,17.3,0,0,1-16.6-12.1,17.5,17.5,0,1,1,33.2-10.8h0A17.4,17.4,0,0,1,570,63.3,17.7,17.7,0,0,1,559.9,72,20.2,20.2,0,0,1,554.5,72.8Zm0-27.7a8.9,8.9,0,0,0-3.2.5,10.2,10.2,0,0,0-6.6,12.9,10.4,10.4,0,0,0,5.1,6,10.1,10.1,0,0,0,7.8.6,9.8,9.8,0,0,0,6-5.1,9.6,9.6,0,0,0,.6-7.8A10.1,10.1,0,0,0,554.5,45.1Z"/>
    </g>
    <g>
      <path class="h" d="M740.4,60.1A13.9,13.9,0,0,1,714,68.6a13.9,13.9,0,1,1,26.4-8.5Z"/>
      <path class="a" d="M727.2,81.8a17.5,17.5,0,0,1-15.6-25.4,17.9,17.9,0,0,1,10.2-8.7A17.5,17.5,0,1,1,732.6,81,20.2,20.2,0,0,1,727.2,81.8Zm0-27.7a9.3,9.3,0,0,0-3.2.5,9.6,9.6,0,0,0-5.9,5.1,10.1,10.1,0,0,0-.7,7.8,10.3,10.3,0,0,0,13,6.6,10.1,10.1,0,0,0,6-5.1,10.5,10.5,0,0,0,.6-7.8A10.3,10.3,0,0,0,727.2,54.1Z"/>
    </g>
    <rect class="g" x="645.7" y="83.6" width="8" height="15.42" transform="translate(99.7 449) rotate(-41)"/>
    <rect class="g" x="536.6" y="41.6" width="8" height="15.42" transform="translate(279.7 525.3) rotate(-66.5)"/>
    <rect class="g" x="740.9" y="37.3" width="20.3" height="8" transform="translate(9.1 164.7) rotate(-12.6)"/>
    <rect class="g" x="684.4" y="63.9" width="15.3" height="8" transform="translate(115.9 457.3) rotate(-39.7)"/>
    <rect class="b" x="378.9" y="407.3" width="50" height="12"/>
    <rect class="b" x="378.9" y="387.3" width="50" height="12"/>
    <text class="i" transform="translate(445.9 576.5) scale(0.96 1)">VOLCANOES OF HOKKAIDO </text>
    <text class="i" transform="translate(0 576.5) scale(0.96 1)">PEAKS OF THE ALPS</text>
    <rect class="j" x="18.7" y="441.3" width="73.1" height="8" transform="translate(-358 270.5) rotate(-60)"/>
    <polygon class="j" points="234.2 478.9 203.5 425.7 189.5 449.8 169.8 415.7 176.7 411.7 189.5 433.8 203.5 409.7 241.1 474.9 234.2 478.9"/>
    <polygon class="j" points="234.2 478.9 203.5 425.7 189.5 449.8 168 412.6 179.7 392.5 186.6 396.5 177.3 412.6 189.5 433.8 203.5 409.7 241.1 474.9 234.2 478.9"/>
    <rect class="j" x="246.8" y="388.1" width="8" height="95.23" transform="translate(-184.2 183.8) rotate(-30)"/>
    <path class="k" d="M138.9,427.4c-29.8,0-37-10.4-37.8-11.6l-1.2-2.1,39-67.5,39,67.5-1.2,2.1C175.9,417,168.7,427.4,138.9,427.4ZM109.6,413c3.1,2.3,11.2,6.4,29.3,6.4s26.2-4.1,29.3-6.4l-29.3-50.8Z"/>
    <path class="k" d="M89,423.9c-15.4,0-18.9-7.9-19.3-8.8l-.7-1.8,20-34.5,20,34.5-.7,1.8C107.9,416,104.5,423.9,89,423.9ZM78.3,413.3c1.5,1.1,4.6,2.6,10.7,2.6s9.2-1.5,10.7-2.6L89,394.8Z"/>
    <path class="k" d="M203.9,408.4c-9.4,0-16.3-2-20.6-6s-4.1-7-4.1-7.6v-1.3l26-45L231.3,394l-.5,1.7C230.6,396.2,226.5,408.4,203.9,408.4ZM187.5,395c1.2,2.3,5.6,5.4,16.4,5.4s16.8-3.8,18.5-5.9l-17.3-30Z"/>
    <polygon class="j" points="124.4 494.4 104.5 460 84.7 494.4 77.7 490.4 104.5 444 131.4 490.4 124.4 494.4"/>
    <path class="j" d="M776,468.8c-16-3.3-38.2-10.2-53.4-23.8s-23.5-22.8-33.3-36.8a14.8,14.8,0,0,1-3.4,4.4,12.7,12.7,0,0,1-7.3,2.8c-2.7,5.3-9.6,16.8-19.4,16.8s-17.6-10.7-20.7-15.3H615.8c-7.9,0-12.7-7.1-15.3-12.7-9.1,10.1-21.3,23.6-33.7,37.1s-32.4,21.5-60.8,25.2l-1-7.9c18.1-2.4,42.6-8.3,55.9-22.7s28.8-31.6,38.1-42l4.4-5,2.4,6.6c.9,3.5,4.7,13.4,10,13.4H643l1.2,2c2,3.4,9,13.3,15,13.3s11.2-9.7,13.2-14.4l1.3-3,3.2.6h0a5,5,0,0,0,3.9-1.1c1.7-1.3,2.5-4.2,2.5-8.2V384.8l7.4,11.1c12.4,18.6,18.8,26.6,37.3,43.1,10.8,9.7,28.4,17.5,49.6,22Z"/>
    <path class="j" d="M711.8,464.5c-18.6-9.1-38.5-49.7-39.3-51.4l7.2-3.5c5.3,11,22.2,41.1,35.6,47.7Z"/>
    <path class="j" d="M634.1,453l-7.6-2.2c3.9-13.8,8-38,8.1-38.2l7.9,1.3C642.3,414.9,638.3,438.8,634.1,453Z"/>
    <path class="k" d="M659.2,432.2c-9.6,0-17.6-10.7-20.7-15.3H615.8c-12,0-16.9-16.4-17.7-19.1l-.7-2.1,1.6-1.8,14.2-16.1,1.2-1.4h20.8c2.2-8.1,5.9-16.4,11.7-16.4h1.5c6-.8,17.3-2.3,34.8,24.6l7.5,11.4.6,1v1.2c0,6.6-1.8,11.5-5.4,14.5a12.7,12.7,0,0,1-7.3,2.8C675.9,420.7,669,432.2,659.2,432.2Zm-52.8-34.7c1.5,4.3,4.9,11.4,9.4,11.4H643l1.2,2c2,3.4,9,13.3,15,13.3s11.2-9.7,13.2-14.4l1.3-3,3.2.6h0a5,5,0,0,0,3.9-1.1c1.5-1.2,2.4-3.6,2.5-7l-6.8-10.4c-14.8-22.7-22.8-21.6-27.1-21.1l-1.9.2c-1.5,1.4-3.9,7.6-5.3,13.4l-.7,3H618C616.1,386.6,612,391.3,606.4,397.5Z"/>
    <rect class="j" x="569" y="476.8" width="56.9" height="8"/>
    <rect class="j" x="647.6" y="494.1" width="68.5" height="8"/>
  </g>
</svg>
