<svg xmlns="http://www.w3.org/2000/svg" viewBox="0 0 784.6 266.8">
  <defs>
    <style>
      .a {
        fill: red;
      }

      .b {
        font-size: 24px;
        fill: #ababab;
        font-family: Montserrat-Black, Montserrat;
        font-weight: 800;
        letter-spacing: 0.1em;
      }

      .c {
        fill: #c8c8c8;
      }

      .d {
        fill: #aae5e5;
      }
    </style>
  </defs>
  <g>
    <rect class="a" x="378.9" y="61.1" width="50" height="12"/>
    <rect class="a" x="378.9" y="41.1" width="50" height="12"/>
    <text class="b" transform="translate(445.9 230.3) scale(0.96 1)">VOLCANOES OF HOKKAIDO </text>
    <text class="b" transform="translate(0 230.3) scale(0.96 1)">PEAKS OF THE ALPS</text>
    <rect class="c" x="18.7" y="95.1" width="73.1" height="8" transform="translate(-58.2 97.4) rotate(-60)"/>
    <polygon class="c" points="234.2 132.8 203.5 79.5 189.5 103.7 169.8 69.5 176.7 65.5 189.5 87.7 203.5 63.5 241.1 128.8 234.2 132.8"/>
    <polygon class="c" points="234.2 132.8 203.5 79.5 189.5 103.7 168 66.5 179.7 46.3 186.6 50.3 177.3 66.5 189.5 87.7 203.5 63.5 241.1 128.8 234.2 132.8"/>
    <rect class="c" x="246.8" y="41.9" width="8" height="95.23" transform="translate(-11.2 137.4) rotate(-30)"/>
    <path class="d" d="M138.9,81.2c-29.8,0-37-10.4-37.8-11.6l-1.2-2L138.9,0l39,67.6-1.2,2C175.9,70.8,168.7,81.2,138.9,81.2ZM109.6,66.8c3.1,2.3,11.2,6.4,29.3,6.4s26.2-4.1,29.3-6.4L138.9,16Z"/>
    <path class="d" d="M89,77.7c-15.4,0-18.9-7.9-19.3-8.8L69,67.1,89,32.6l20,34.5-.7,1.8C107.9,69.8,104.5,77.7,89,77.7ZM78.3,67.1c1.5,1.1,4.6,2.6,10.7,2.6s9.2-1.5,10.7-2.6L89,48.6Z"/>
    <path class="d" d="M203.9,62.3c-9.4,0-16.3-2.1-20.6-6.1s-4.1-6.9-4.1-7.6V47.3l26-45,26.2,45.5-.5,1.7C230.6,50,226.5,62.3,203.9,62.3ZM187.5,48.8c1.2,2.3,5.6,5.5,16.4,5.5s16.8-3.9,18.5-6l-17.3-30Z"/>
    <polygon class="c" points="124.4 148.2 104.5 113.8 84.7 148.2 77.7 144.2 104.5 97.8 131.4 144.2 124.4 148.2"/>
    <path class="c" d="M776,122.7c-16-3.4-38.2-10.3-53.4-23.9S699.1,76.1,689.3,62a13.7,13.7,0,0,1-3.4,4.4,12.7,12.7,0,0,1-7.3,2.8C675.9,74.6,669,86,659.2,86s-17.6-10.6-20.7-15.3H615.8c-7.9,0-12.7-7.1-15.3-12.7-9.1,10.2-21.3,23.6-33.7,37.1s-32.4,21.5-60.8,25.2l-1-7.9c18.1-2.4,42.6-8.3,55.9-22.7s28.8-31.6,38.1-42l4.4-4.9,2.4,6.6c.9,3.4,4.7,13.3,10,13.3H643l1.2,2c2,3.4,9,13.3,15,13.3s11.2-9.7,13.2-14.4l1.3-3,3.2.6h0a5.2,5.2,0,0,0,3.9-1c1.7-1.4,2.5-4.3,2.5-8.3V38.7l7.4,11c12.4,18.7,18.8,26.6,37.3,43.1,10.8,9.7,28.4,17.5,49.6,22Z"/>
    <path class="c" d="M711.8,118.3c-18.6-9.1-38.5-49.7-39.3-51.4l7.2-3.5c5.3,11.1,22.2,41.2,35.6,47.7Z"/>
    <path class="c" d="M634.1,106.9l-7.6-2.3c3.9-13.7,8-38,8.1-38.2l7.9,1.3C642.3,68.7,638.3,92.6,634.1,106.9Z"/>
    <path class="d" d="M659.2,86c-9.6,0-17.6-10.6-20.7-15.3H615.8c-12,0-16.9-16.4-17.7-19.1l-.7-2.1,1.6-1.8,14.2-16.1,1.2-1.3h20.8c2.2-8.1,5.9-16.5,11.7-16.5h1.5c6-.8,17.3-2.2,34.8,24.7l7.5,11.3.6,1v1.2c0,6.6-1.8,11.5-5.4,14.5a12.7,12.7,0,0,1-7.3,2.8C675.9,74.6,669,86,659.2,86ZM606.4,51.3c1.5,4.3,4.9,11.4,9.4,11.4H643l1.2,2c2,3.4,9,13.3,15,13.3s11.2-9.7,13.2-14.4l1.3-3,3.2.6h0a5.2,5.2,0,0,0,3.9-1c1.5-1.3,2.4-3.7,2.5-7.1l-6.8-10.4C661.7,20,653.7,21.1,649.4,21.6l-1.9.2c-1.5,1.5-3.9,7.6-5.3,13.4l-.7,3.1H618Z"/>
    <rect class="c" x="569" y="130.6" width="56.9" height="8"/>
    <rect class="c" x="647.6" y="147.9" width="68.5" height="8"/>
  </g>
</svg>
