<svg xmlns="http://www.w3.org/2000/svg" viewBox="0 0 774.2 266.8">
  <defs>
    <style>
      .a {
        fill: #e5e5e5;
      }

      .b {
        fill: red;
      }

      .c, .d {
        font-size: 24px;
        fill: #ababab;
        font-family: Montserrat-Black, Montserrat;
        font-weight: 800;
      }

      .c {
        letter-spacing: 0.12em;
      }

      .d {
        letter-spacing: 0.12em;
      }

      .e {
        fill: #3f8e00;
      }

      .f {
        fill: #802600;
      }

      .g {
        fill: #b2a792;
      }

      .h {
        fill: #fff;
      }
    </style>
  </defs>
  <g>
    <path class="a" d="M3.2,117,0,110.6C36.6,92.1,91.9,81.5,151.8,81.5c48,0,93.8,6.9,129.1,19.5l-2.4,6.7c-34.5-12.2-79.5-19-126.7-19C93,88.7,38.9,99,3.2,117Z"/>
    <path class="a" d="M781,122c-35.7-18-89.8-28.3-148.6-28.3-47.2,0-92.1,6.8-126.7,19.1l-2.4-6.8c35.3-12.6,81.1-19.5,129.1-19.5,59.9,0,115.2,10.6,151.8,29.1Z"/>
    <rect class="b" x="373.9" y="91.1" width="50" height="12"/>
    <rect class="b" x="373.9" y="71.1" width="50" height="12"/>
    <text class="c" transform="translate(594.8 260.3) scale(0.96 1)">BIRCH</text>
    <text class="d" transform="translate(55.2 255.3) scale(0.96 1)">PINE TREES</text>
    <polygon class="e" points="141.4 75.9 111.3 43.6 81.2 75.9 75.4 70.4 111.3 31.9 147.3 70.4 141.4 75.9"/>
    <polygon class="e" points="141.4 97.3 111.3 65 81.2 97.3 75.4 91.8 111.3 53.3 147.3 91.8 141.4 97.3"/>
    <polygon class="e" points="227 65.4 196.8 33.1 166.7 65.4 160.9 59.9 196.8 21.4 232.8 59.9 227 65.4"/>
    <polygon class="e" points="227 86.8 196.8 54.5 166.7 86.8 160.9 81.3 196.8 42.8 232.8 81.3 227 86.8"/>
    <polygon class="e" points="264.5 170.4 234.3 138.1 204.2 170.4 198.4 164.9 234.3 126.4 270.3 164.9 264.5 170.4"/>
    <polygon class="e" points="264.5 191.8 234.3 159.5 204.2 191.8 198.4 186.3 234.3 147.8 270.3 186.3 264.5 191.8"/>
    <rect class="f" x="107.3" y="20.6" width="8" height="91.54"/>
    <rect class="f" x="230.3" y="116.1" width="8" height="90.06"/>
    <rect class="g" x="567.2" y="32.1" width="8" height="90.06"/>
    <rect class="g" x="656.8" y="73.7" width="8" height="90.06"/>
    <rect class="g" x="718.2" y="33.1" width="8" height="90.06"/>
    <rect class="g" x="610.8" y="121.1" width="8" height="90.06"/>
    <rect class="f" x="192.8" y="11.6" width="8" height="86.86"/>
    <polygon class="e" points="141.4 54.5 111.3 22.2 81.2 54.5 75.4 49 111.3 10.5 147.3 49 141.4 54.5"/>
    <polygon class="e" points="227 44 196.8 11.7 166.7 44 160.9 38.5 196.8 0 232.8 38.5 227 44"/>
    <polygon class="e" points="264.5 149 234.3 116.7 204.2 149 198.4 143.5 234.3 105 270.3 143.5 264.5 149"/>
    <g>
      <path class="h" d="M595.7,24.7a25.4,25.4,0,1,1-32-16.3A25.5,25.5,0,0,1,595.7,24.7Z"/>
      <path class="a" d="M571.6,61.5a29,29,0,0,1-9-56.6,29,29,0,0,1,36.5,18.7h0a28.9,28.9,0,0,1-18.6,36.5A28,28,0,0,1,571.6,61.5Zm0-50.8a22.5,22.5,0,0,0-6.8,1.1,21.8,21.8,0,1,0,27.5,14,21.4,21.4,0,0,0-10.9-12.7A21.2,21.2,0,0,0,571.6,10.7Z"/>
    </g>
    <g>
      <path class="h" d="M690.5,75.8a31.2,31.2,0,1,1-39.3-20A31.3,31.3,0,0,1,690.5,75.8Z"/>
      <path class="a" d="M660.8,120.3a35.3,35.3,0,0,1-15.8-3.8,34.5,34.5,0,0,1-17.3-20.3,34.9,34.9,0,0,1,2.1-26.5,34.8,34.8,0,0,1,64.1,5h0a34.8,34.8,0,0,1-22.3,43.9A36.4,36.4,0,0,1,660.8,120.3Zm0-62.4A27.3,27.3,0,0,0,636.2,73a27.7,27.7,0,0,0,12.1,37.1A27.6,27.6,0,0,0,687.1,77h0A27.6,27.6,0,0,0,660.8,57.9Z"/>
    </g>
    <g>
      <path class="h" d="M601,56.4A17.4,17.4,0,1,1,583.7,39,17.2,17.2,0,0,1,601,56.4Z"/>
      <path class="a" d="M583.7,77.3a21,21,0,1,1,20.9-20.9A21,21,0,0,1,583.7,77.3Zm0-34.7a13.8,13.8,0,1,0,0,27.5,13.8,13.8,0,0,0,0-27.5Z"/>
    </g>
    <g>
      <path class="h" d="M632.2,127.4A17.4,17.4,0,1,1,614.8,110,17.3,17.3,0,0,1,632.2,127.4Z"/>
      <path class="a" d="M614.8,148.3a21,21,0,1,1,21-20.9A21,21,0,0,1,614.8,148.3Zm0-34.7a13.8,13.8,0,1,0,13.8,13.8A13.8,13.8,0,0,0,614.8,113.6Z"/>
    </g>
    <g>
      <path class="h" d="M747.1,39A22.1,22.1,0,1,1,725,17,22.1,22.1,0,0,1,747.1,39Z"/>
      <path class="a" d="M725,64.7A25.7,25.7,0,1,1,750.7,39,25.8,25.8,0,0,1,725,64.7Zm0-44.1A18.5,18.5,0,1,0,743.5,39,18.4,18.4,0,0,0,725,20.6Z"/>
    </g>
    <g>
      <path class="h" d="M562.6,51a13.9,13.9,0,1,1-17.5-8.9A14,14,0,0,1,562.6,51Z"/>
      <path class="a" d="M549.4,72.8a17.5,17.5,0,0,1-16.6-12.1,17.5,17.5,0,0,1,33.3-10.8h0A17.8,17.8,0,0,1,565,63.3,17.6,17.6,0,0,1,554.8,72,20.2,20.2,0,0,1,549.4,72.8Zm0-27.7a8.4,8.4,0,0,0-3.1.5,10.2,10.2,0,1,0,6.3,19.5,10.4,10.4,0,0,0,6-5.1,10.5,10.5,0,0,0,.6-7.8A10.2,10.2,0,0,0,549.4,45.1Z"/>
    </g>
    <g>
      <path class="h" d="M735.4,60.1a13.9,13.9,0,1,1-17.5-9A13.9,13.9,0,0,1,735.4,60.1Z"/>
      <path class="a" d="M722.2,81.8a17.4,17.4,0,0,1-15.6-25.4,17.3,17.3,0,0,1,10.2-8.7,17.5,17.5,0,0,1,22,11.2,17.4,17.4,0,0,1-1.1,13.4A17.7,17.7,0,0,1,727.6,81,20.2,20.2,0,0,1,722.2,81.8Zm0-27.7a8.6,8.6,0,0,0-3.2.5,10.2,10.2,0,0,0-6.6,12.9,10.2,10.2,0,0,0,12.9,6.6,9.5,9.5,0,0,0,6-5.1,9.6,9.6,0,0,0,.6-7.8A10.1,10.1,0,0,0,722.2,54.1Z"/>
    </g>
    <rect class="g" x="640.6" y="83.6" width="8" height="15.42" transform="translate(98.5 445.7) rotate(-41)"/>
    <rect class="g" x="531.5" y="41.6" width="8" height="15.42" transform="translate(276.7 520.7) rotate(-66.5)"/>
    <rect class="g" x="735.8" y="37.3" width="20.3" height="8" transform="translate(9 163.6) rotate(-12.6)"/>
    <rect class="g" x="679.4" y="63.9" width="15.3" height="8" transform="translate(114.7 454) rotate(-39.7)"/>
  </g>
</svg>
