<svg xmlns="http://www.w3.org/2000/svg" viewBox="0 0 815.1 303.2">
  <defs>
    <style>
      .a {
        fill: red;
      }

      .b {
        font-size: 24px;
        fill: #ababab;
        font-family: Montserrat-Black, Montserrat;
        font-weight: 800;
        letter-spacing: 0.1em;
      }

      .c {
        fill: #e5e5e5;
      }

      .d {
        fill: #c8c8c8;
      }

      .e {
        fill: #fff;
      }

      .f {
        fill: #dc9d41;
      }

      .g {
        fill: #565656;
      }

      .h {
        fill: #8ab1c8;
      }

      .i {
        fill: #e53910;
      }

      .j {
        fill: #746163;
      }

      .k {
        fill: #40a1a7;
      }
    </style>
  </defs>
  <g>
    <rect class="a" x="394.2" y="127.5" width="50" height="12"/>
    <rect class="a" x="394.2" y="107.5" width="50" height="12"/>
    <text class="b" transform="translate(611.7 296.7) scale(0.96 1)">ONSEN</text>
    <text class="b" transform="translate(111 296.7) scale(0.96 1)">SAUNA</text>
    <path class="c" d="M3.6,195.2,0,188c39.6-19.9,99.4-31.3,164.2-31.3,51.8,0,101.3,7.4,139.5,21l-2.6,7.5c-37.4-13.2-86-20.5-136.9-20.5C100.6,164.7,42.1,175.8,3.6,195.2Z"/>
    <path class="d" d="M811.6,179.8c-38.8-18.8-97.5-28.9-161-27.9-51,.8-99.5,8.9-136.6,22.7l-2.8-7.5c38-14.1,87.4-22.4,139.2-23.2,64.8-1.1,124.8,9.4,164.7,28.7Z"/>
    <g>
      <rect class="e" x="87.4" y="74.2" width="44.6" height="116.34"/>
      <path class="f" d="M136,194.5H83.4V70.2H136Zm-44.6-8H128V78.2H91.4Z"/>
    </g>
    <g>
      <rect class="e" x="132" y="74.2" width="101.8" height="116.34"/>
      <path class="f" d="M237.8,194.5H128V70.2H237.8Zm-101.8-8h93.8V78.2H136Z"/>
    </g>
    <rect class="g" x="103.6" y="52.4" width="11.3" height="18.57"/>
    <path class="c" d="M109.3,45a9.7,9.7,0,1,1,9.7-9.7A9.7,9.7,0,0,1,109.3,45Zm0-11.3a1.7,1.7,0,0,0-1.7,1.6,1.7,1.7,0,0,0,3.4,0A1.7,1.7,0,0,0,109.3,33.7Z"/>
    <path class="c" d="M120.1,19.3a9.7,9.7,0,0,1-9.7-9.6,9.7,9.7,0,0,1,19.4,0A9.7,9.7,0,0,1,120.1,19.3Zm0-11.3a1.8,1.8,0,0,0-1.7,1.7,1.7,1.7,0,0,0,3.4,0A1.8,1.8,0,0,0,120.1,8Z"/>
    <g>
      <line class="e" x1="101.5" y1="126.8" x2="101.5" y2="190.5"/>
      <rect class="f" x="97.5" y="126.8" width="8" height="63.75"/>
    </g>
    <g>
      <line class="e" x1="117.1" y1="126.8" x2="117.1" y2="190.5"/>
      <rect class="f" x="113.1" y="126.8" width="8" height="63.75"/>
    </g>
    <g>
      <rect class="e" x="101.5" y="90.2" width="15.7" height="22.87"/>
      <path class="h" d="M121.1,117.1H97.5V86.2h23.6Zm-15.6-8h7.6V94.2h-7.6Z"/>
    </g>
    <g>
      <line class="e" x1="132" y1="74.2" x2="132" y2="190.5"/>
      <path class="f" d="M132,194.5a4,4,0,0,1-4-4V74.2a4,4,0,1,1,8,0V190.5A4,4,0,0,1,132,194.5Z"/>
    </g>
    <g>
      <line class="e" x1="146.9" y1="126.8" x2="146.9" y2="190.5"/>
      <rect class="f" x="142.9" y="126.8" width="8" height="63.75"/>
    </g>
    <g>
      <line class="e" x1="161.8" y1="126.8" x2="161.8" y2="190.5"/>
      <rect class="f" x="157.8" y="126.8" width="8" height="63.75"/>
    </g>
    <g>
      <line class="e" x1="176.7" y1="126.8" x2="176.7" y2="190.5"/>
      <rect class="f" x="172.7" y="126.8" width="8" height="63.75"/>
    </g>
    <g>
      <line class="e" x1="191.6" y1="74.2" x2="191.6" y2="190.5"/>
      <rect class="f" x="187.6" y="74.2" width="8" height="116.34"/>
    </g>
    <g>
      <line class="e" x1="206.5" y1="148.7" x2="206.5" y2="190.5"/>
      <rect class="f" x="202.5" y="148.7" width="8" height="41.78"/>
    </g>
    <g>
      <line class="e" x1="221.3" y1="74.2" x2="221.3" y2="190.5"/>
      <rect class="f" x="217.3" y="74.2" width="8" height="116.34"/>
    </g>
    <g>
      <rect class="e" x="146.9" y="88.2" width="29.8" height="95.83"/>
      <path class="h" d="M180.7,188H142.9V84.2h37.8Zm-29.8-8h21.8V92.2H150.9Z"/>
    </g>
    <g>
      <line class="e" x1="150.8" y1="138.3" x2="173.2" y2="138.3"/>
      <rect class="f" x="150.8" y="134.3" width="22.3" height="8"/>
    </g>
    <g>
      <g>
        <line class="e" x1="206.5" y1="107" x2="206.5" y2="132.9"/>
        <rect class="h" x="202.5" y="107" width="8" height="25.94"/>
      </g>
      <path class="i" d="M206.5,144.8a8,8,0,1,1,7.9-7.9A8,8,0,0,1,206.5,144.8Zm-.1-7.9Z"/>
      <rect class="i" x="202.5" y="116.7" width="8" height="20.18"/>
    </g>
    <g>
      <line class="e" x1="206.5" y1="72" x2="206.5" y2="101.9"/>
      <rect class="f" x="202.5" y="72" width="8" height="29.89"/>
    </g>
    <g>
      <path class="e" d="M601.4,92.6a16.9,16.9,0,0,0-16.8,16.9v58.2h33.7V109.5A16.9,16.9,0,0,0,601.4,92.6Z"/>
      <path class="j" d="M622.3,171.7H580.6V109.5a20.9,20.9,0,1,1,41.7,0Zm-33.7-8h25.7V109.5a12.9,12.9,0,1,0-25.7,0Z"/>
    </g>
    <g>
      <path class="e" d="M693,130a11.5,11.5,0,0,0-11.5,11.6v27.1h23.1V141.6A11.6,11.6,0,0,0,693,130Z"/>
      <path class="j" d="M708.6,172.7H677.5V141.6a15.6,15.6,0,1,1,31.1,0Zm-23.1-8h15.1V141.6a7.6,7.6,0,1,0-15.1,0Z"/>
    </g>
    <g>
      <path class="e" d="M731.2,178.3c0,10.7-32.4,19.4-72.5,19.4s-72.5-8.7-72.5-19.4,32.5-19.5,72.5-19.5S731.2,167.5,731.2,178.3Z"/>
      <path class="k" d="M658.7,201.7c-19.7,0-38.3-2-52.3-5.8-16.1-4.3-24.2-10.2-24.2-17.6s8.1-13.3,24.2-17.7c14-3.7,32.6-5.8,52.3-5.8s38.3,2.1,52.3,5.8c16.1,4.4,24.2,10.3,24.2,17.7s-8.1,13.3-24.2,17.6C697,199.7,678.4,201.7,658.7,201.7Zm0-38.9c-44.3,0-68.5,10.2-68.5,15.5s24.2,15.4,68.5,15.4,68.5-10.2,68.5-15.4S703,162.8,658.7,162.8Z"/>
    </g>
    <path class="c" d="M663.5,215.8v-8c22.2,0,43-2.9,58.5-8,20.5-6.8,22.1-14.1,22.1-16.1h8C752.1,204.5,706.4,215.8,663.5,215.8Z"/>
    <g>
      <path class="e" d="M584.6,149.9a16.9,16.9,0,0,0-16.9,16.8v28.2l33.7,8.5V166.7A16.8,16.8,0,0,0,584.6,149.9Z"/>
      <path class="j" d="M605.4,208.5,563.7,198V166.7a20.9,20.9,0,0,1,41.7,0Zm-33.7-16.8,25.7,6.5V166.7a12.9,12.9,0,0,0-25.7,0Z"/>
    </g>
    <g>
      <path class="e" d="M541.7,193.1s49-5.1,79.3,22.3"/>
      <path class="d" d="M618.3,218.4c-28.6-25.9-75.7-21.4-76.2-21.4l-.8-7.9c2.1-.2,51.1-4.9,82.4,23.3Z"/>
    </g>
    <g>
      <line class="e" x1="614.4" y1="180.1" x2="625.9" y2="180.1"/>
      <rect class="k" x="614.4" y="176.1" width="11.5" height="8"/>
    </g>
    <g>
      <path class="e" d="M704.6,117.4a11.2,11.2,0,1,1-11.2-11.2A11.2,11.2,0,0,1,704.6,117.4Z"/>
      <path class="j" d="M693.4,132.6a15.2,15.2,0,1,1,15.2-15.2A15.2,15.2,0,0,1,693.4,132.6Zm0-22.4a7.2,7.2,0,1,0,0,14.4,7.2,7.2,0,1,0,0-14.4Z"/>
    </g>
    <path class="c" d="M641.5,119.6h-8a23.2,23.2,0,0,1,2.5-11.1,16.2,16.2,0,0,0,1.8-7.9,16.5,16.5,0,0,0-1.8-7.9,23.2,23.2,0,0,1-2.5-11.1A23.7,23.7,0,0,1,636,70.4a16.2,16.2,0,0,0,1.8-7.9h8a23.4,23.4,0,0,1-2.5,11.2,16.2,16.2,0,0,0-1.8,7.9,15.7,15.7,0,0,0,1.8,7.8,23.7,23.7,0,0,1,2.5,11.2,23.7,23.7,0,0,1-2.5,11.2A16,16,0,0,0,641.5,119.6Z"/>
    <path class="c" d="M656.3,124.2h-8a24.5,24.5,0,0,1,2.5-11.1,15.1,15.1,0,0,0,1.8-7.9,15.4,15.4,0,0,0-1.8-7.9,24.5,24.5,0,0,1-2.5-11.1h8a15.7,15.7,0,0,0,1.8,7.8,23.7,23.7,0,0,1,2.5,11.2,23.7,23.7,0,0,1-2.5,11.2A16,16,0,0,0,656.3,124.2Z"/>
    <path class="c" d="M722.4,105.2h-8a16.5,16.5,0,0,0-1.8-7.9A23,23,0,0,1,710,86.2,23.2,23.2,0,0,1,712.6,75a16.2,16.2,0,0,0,1.8-7.9h8a23.2,23.2,0,0,1-2.6,11.2,16.2,16.2,0,0,0-1.8,7.9,15.7,15.7,0,0,0,1.8,7.8A23.5,23.5,0,0,1,722.4,105.2Z"/>
    <path class="c" d="M627.1,61.5h-8a16.2,16.2,0,0,0-1.8-7.9,24.6,24.6,0,0,1-2.5-11.2,24.5,24.5,0,0,1,2.5-11.1,16.5,16.5,0,0,0,1.8-7.9h8a23.7,23.7,0,0,1-2.5,11.2,15.7,15.7,0,0,0-1.8,7.8,16.2,16.2,0,0,0,1.8,7.9A23.4,23.4,0,0,1,627.1,61.5Z"/>
    <g>
      <line class="e" x1="638.2" y1="170.7" x2="649.7" y2="170.7"/>
      <rect class="k" x="638.2" y="166.7" width="11.5" height="8"/>
    </g>
    <g>
      <line class="e" x1="678.2" y1="178.3" x2="689.7" y2="178.3"/>
      <rect class="k" x="678.2" y="174.3" width="11.5" height="8"/>
    </g>
  </g>
</svg>
