<svg xmlns="http://www.w3.org/2000/svg" viewBox="0 0 780.6 354.5">
  <defs>
    <style>
      .a {
        fill: #e5e5e5;
      }

      .b {
        fill: #fff;
      }

      .c {
        fill: #7cae41;
      }

      .d {
        fill: #228041;
      }

      .e {
        fill: #dc9d41;
      }

      .f {
        fill: #b1804e;
      }

      .g {
        fill: #aa5841;
      }

      .h {
        fill: #ff5841;
      }

      .i {
        fill: red;
      }

      .j {
        font-size: 24px;
        fill: #ababab;
        font-family: Montserrat-Black, Montserrat;
        font-weight: 800;
        letter-spacing: 0.12em;
      }

      .k {
        fill: #2b2b2b;
      }

      .l {
        fill: #ffea41;
      }

      .m {
        fill: #e9c424;
      }
    </style>
  </defs>
  <g>
    <g>
      <path class="a" d="M636.4,179.9c-29.7,0-57.7-2.7-78.8-7.6-23.4-5.4-35.3-12.8-35.3-22s11.9-16.5,35.3-21.9c21.1-4.9,49.1-7.6,78.8-7.6s57.8,2.7,78.9,7.6c23.4,5.4,35.3,12.8,35.3,21.9s-11.9,16.6-35.3,22C694.2,177.2,666.2,179.9,636.4,179.9Zm0-51.1c-29.1,0-56.4,2.6-76.9,7.4-28.9,6.6-29.2,13.8-29.2,14.1s.3,7.5,29.2,14.2c20.5,4.8,47.8,7.4,76.9,7.4s56.5-2.6,77-7.4c28.9-6.7,29.2-13.9,29.2-14.2s-.3-7.5-29.2-14.1C692.9,131.4,665.6,128.8,636.4,128.8Z"/>
      <g>
        <path class="b" d="M717.9,150.3s2.3-22.5,23.4-25.7c0,0,9.6,19-12.3,39.2"/>
        <path class="c" d="M729,167.8a4,4,0,0,1-2.7-6.9c14.7-13.6,13.8-26.2,12.4-31.6-14.9,4.3-16.8,21.2-16.8,21.4a4,4,0,0,1-4.4,3.6,4,4,0,0,1-3.5-4.4c.9-8.8,7.6-26.3,26.7-29.2l2.8-.4,1.3,2.5c.5.9,10.8,21.9-13.1,43.9A4,4,0,0,1,729,167.8Z"/>
      </g>
      <g>
        <path class="b" d="M675.7,136.6s19.7-40.7,21-42.8a4.8,4.8,0,0,1,6-1.9c1.6.5,2.8,3.4,1.9,5.2s-13.8,37.4-14.4,40.8"/>
        <path class="d" d="M690.2,141.9h-.7a4,4,0,0,1-3.2-4.6c.7-3.9,13.3-38.3,14.6-41.6h0c-.5,0-.6.2-.8.5-1.2,1.9-13.4,27-20.8,42.3a4,4,0,0,1-5.3,1.9,4.1,4.1,0,0,1-1.9-5.4c4.7-9.6,19.9-41,21.3-43.2A8.8,8.8,0,0,1,704,88.1a7.3,7.3,0,0,1,4.2,4.1,8.2,8.2,0,0,1,0,6.7c-1.1,2.4-13.4,36.6-14,39.7A4.2,4.2,0,0,1,690.2,141.9ZM701,95.4Z"/>
      </g>
      <g>
        <path class="b" d="M596.9,142.9s7.7-44.5,8.4-46.9a4.8,4.8,0,0,1,5.2-3.5c1.7.1,3.6,2.5,3.3,4.6s-2.9,39.7-2.6,43.1"/>
        <path class="d" d="M596.9,146.9h-.7a4,4,0,0,1-3.2-4.6c1.8-10.6,7.7-45,8.5-47.4a8.8,8.8,0,0,1,9.2-6.4,7.4,7.4,0,0,1,5.2,2.8,8.2,8.2,0,0,1,1.8,6.4c-.4,2.7-2.8,38.9-2.5,42.1a4,4,0,0,1-3.6,4.4,3.9,3.9,0,0,1-4.3-3.6c-.5-3.9,2.1-40.5,2.5-44h0a.8.8,0,0,0-.7.7c-.6,2.2-5.4,29.6-8.2,46.4A4.1,4.1,0,0,1,596.9,146.9Z"/>
      </g>
      <g>
        <path class="b" d="M691.9,140s2.3-22.5,23.4-25.7c0,0,9.6,19-12.3,39.2"/>
        <path class="c" d="M703,157.5a4.3,4.3,0,0,1-3-1.3,4.1,4.1,0,0,1,.3-5.7C715,137,714.1,124.4,712.7,119c-14.9,4.3-16.8,21.2-16.8,21.4a4,4,0,1,1-7.9-.8c.9-8.9,7.6-26.4,26.7-29.3l2.8-.4,1.3,2.6c.5.9,10.8,21.9-13.1,43.9A4,4,0,0,1,703,157.5Z"/>
      </g>
      <g>
        <path class="b" d="M703.2,148.6s2.3-22.5,23.4-25.7c0,0,9.6,19-12.3,39.2"/>
        <path class="c" d="M714.3,166.1a4.3,4.3,0,0,1-3-1.3,4,4,0,0,1,.3-5.7c14.7-13.5,13.7-26.1,12.4-31.6-14.9,4.4-16.8,21.3-16.8,21.5a4,4,0,0,1-4.4,3.6,4.1,4.1,0,0,1-3.6-4.4c.9-8.9,7.7-26.4,26.8-29.3l2.8-.4,1.3,2.6c.5.9,10.8,21.9-13.1,43.9A4.3,4.3,0,0,1,714.3,166.1Z"/>
      </g>
      <g>
        <path class="b" d="M593.7,142.8s-14.2-17.6-1.4-34.6c0,0,20.2,6.7,18.7,36.5"/>
        <path class="c" d="M611,148.7h-.2a4,4,0,0,1-3.8-4.2c1-20-8.4-28.3-13.3-31.2-7.5,13.4,2.6,26.5,3.1,27a4,4,0,1,1-6.3,5c-5.5-6.9-13-24.1-1.4-39.5l1.8-2.3,2.7.9c.9.3,23,8.1,21.4,40.5A4,4,0,0,1,611,148.7Z"/>
      </g>
      <g>
        <path class="b" d="M678.6,130.6s-10.4-6-10.2-21"/>
        <path class="d" d="M678.6,134.6a4.9,4.9,0,0,1-2-.5c-.5-.3-12.4-7.4-12.2-24.6a3.9,3.9,0,0,1,4-3.9,4,4,0,0,1,4,4c-.2,12.6,8.1,17.5,8.2,17.5a4.1,4.1,0,0,1,1.5,5.5A3.9,3.9,0,0,1,678.6,134.6Z"/>
      </g>
      <g>
        <path class="b" d="M683.2,121.1s-8.6-2.8-6.3-17.3"/>
        <path class="d" d="M683.2,125.1l-1.2-.2c-.5-.1-11.8-4-9-21.7a3.9,3.9,0,0,1,4.6-3.3,4,4,0,0,1,3.3,4.6c-1.7,10.8,3.5,12.8,3.6,12.8a3.9,3.9,0,0,1,2.5,5A4,4,0,0,1,683.2,125.1Z"/>
      </g>
      <g>
        <g>
          <path class="b" d="M615.2,176.2h48a39.5,39.5,0,1,0-48,0Z"/>
          <path class="e" d="M609.1,176.2h13.4a35.5,35.5,0,1,1,33.3,0h13.5a43.4,43.4,0,0,0-30.1-74.7,43.4,43.4,0,0,0-30.1,74.7Z"/>
        </g>
        <g>
          <path class="b" d="M615.2,176.2h48a39.5,39.5,0,1,0-48,0Z"/>
          <path class="e" d="M609.1,176.2h13.4a35.5,35.5,0,1,1,33.3,0h13.5a43.4,43.4,0,0,0-30.1-74.7,43.4,43.4,0,0,0-30.1,74.7Z"/>
        </g>
        <g>
          <line class="b" x1="640.3" y1="118.5" x2="655.1" y2="4.5"/>
          <rect class="f" x="586.2" y="57.5" width="123" height="8" transform="translate(503.3 695.9) rotate(-82.6)"/>
        </g>
        <g>
          <path class="b" d="M665.7,145a26.5,26.5,0,1,1-26.5-26.5A26.5,26.5,0,0,1,665.7,145Z"/>
          <path class="e" d="M639.2,175.5A30.5,30.5,0,1,1,669.7,145,30.6,30.6,0,0,1,639.2,175.5Zm0-53A22.5,22.5,0,1,0,661.7,145,22.5,22.5,0,0,0,639.2,122.5Z"/>
        </g>
        <g>
          <line class="b" x1="643.3" y1="131.4" x2="671.5" y2="16"/>
          <rect class="f" x="594" y="69.7" width="126.8" height="8" transform="translate(429.8 694.8) rotate(-76.3)"/>
        </g>
        <g>
          <path class="b" d="M652.8,145a13.6,13.6,0,1,1-13.6-13.6A13.6,13.6,0,0,1,652.8,145Z"/>
          <path class="e" d="M639.2,162.6A17.6,17.6,0,1,1,656.8,145,17.6,17.6,0,0,1,639.2,162.6Zm0-27.2a9.6,9.6,0,1,0,9.6,9.6A9.6,9.6,0,0,0,639.2,135.4Z"/>
        </g>
        <g>
          <path class="b" d="M660,162.2c0,7.5-9,13.6-20.1,13.6s-20.2-6.1-20.2-13.6,9-13.6,20.2-13.6S660,154.7,660,162.2Z"/>
          <path class="e" d="M625.2,176.2h29.3c5.8-3.1,9.5-8.2,9.5-14,0-9.9-10.6-17.6-24.1-17.6s-24.2,7.7-24.2,17.6C615.7,168,619.4,173.1,625.2,176.2Zm14.7-23.6c8.6,0,16.1,4.5,16.1,9.6s-7.5,9.6-16.1,9.6-16.2-4.5-16.2-9.6S631.2,152.6,639.9,152.6Z"/>
        </g>
      </g>
      <g>
        <g>
          <path class="b" d="M673.9,176.9c8.9-.4,17.9-2.4,26.7-3.8,3.1-.6,6.3-1.1,9.4-1.9l3.8-1.6a39.5,39.5,0,0,0-78.2,7.8,4.9,4.9,0,0,0,.1,1.2C647.2,173.9,662,177.3,673.9,176.9Z"/>
          <path class="e" d="M635.5,178.7a28.3,28.3,0,0,1,4.1-1.4,35.5,35.5,0,0,1,70.4-6h0l7.5-3.1a43.4,43.4,0,0,0-85.9,9.3,5.7,5.7,0,0,0,.1,1.3Z"/>
        </g>
        <g>
          <path class="b" d="M673.9,176.9c8.9-.4,17.9-2.4,26.7-3.8,3.1-.6,6.3-1.1,9.4-1.9l3.8-1.6a39.5,39.5,0,0,0-78.2,7.8,4.9,4.9,0,0,0,.1,1.2C647.2,173.9,662,177.3,673.9,176.9Z"/>
          <path class="e" d="M635.5,178.7a28.3,28.3,0,0,1,4.1-1.4,35.5,35.5,0,0,1,70.4-6h0l7.5-3.1a43.4,43.4,0,0,0-85.9,9.3,5.7,5.7,0,0,0,.1,1.3Z"/>
        </g>
        <g>
          <path class="b" d="M673.9,176.9c8.9-.4,17.9-2.4,26.7-3.8h.6a26.5,26.5,0,0,0-52.6,3.2C657.1,175.8,666.1,177.1,673.9,176.9Z"/>
          <path class="e" d="M652.6,176.1a22.5,22.5,0,0,1,44.6-2.5l3.4-.5,4.5-.8a30.5,30.5,0,0,0-60.5,4.2A70.3,70.3,0,0,1,652.6,176.1Z"/>
        </g>
        <g>
          <path class="b" d="M673.9,176.9a123.3,123.3,0,0,0,14.6-1.7,13.6,13.6,0,0,0-27,1.3C665.8,176.7,670,177,673.9,176.9Z"/>
          <path class="e" d="M665.5,176.7a9.6,9.6,0,0,1,19-.9l7.9-1.3a17.6,17.6,0,0,0-34.9,1.8Z"/>
        </g>
        <path class="e" d="M671.8,176.9a3.3,3.3,0,0,1,3.3-2.9,3.4,3.4,0,0,1,3.2,2.6l1.3-.2a4.6,4.6,0,0,0-4.5-3.7,4.8,4.8,0,0,0-4.7,4.2Z"/>
      </g>
      <g>
        <g>
          <path class="b" d="M653,177.9a39.5,39.5,0,0,0-39-33.7l33.7,33.7Z"/>
          <path class="e" d="M614,148.2a35.6,35.6,0,0,1,35,29.7h8a43.5,43.5,0,0,0-43-37.7,4,4,0,0,0,0,8Z"/>
        </g>
        <g>
          <path class="b" d="M653,177.9a39.5,39.5,0,0,0-39-33.7l33.7,33.7Z"/>
          <path class="e" d="M614,148.2a35.6,35.6,0,0,1,35,29.7h8a43.5,43.5,0,0,0-43-37.7,4,4,0,0,0,0,8Z"/>
        </g>
        <g>
          <path class="b" d="M639.8,177.9A26.5,26.5,0,0,0,614,157.2l20.8,20.7Z"/>
          <path class="e" d="M614,161.2a22.4,22.4,0,0,1,21.7,16.7h8.2A30.6,30.6,0,0,0,614,153.2a4,4,0,0,0,0,8Z"/>
        </g>
        <g>
          <path class="b" d="M630.8,177.9a15,15,0,0,0-13.3-8.1l8.1,8.1Z"/>
          <path class="g" d="M617.5,173.8a10.9,10.9,0,0,1,8.5,4.1h9.1a18.8,18.8,0,0,0-17.6-12.1,4,4,0,0,0,0,8Z"/>
        </g>
      </g>
      <g>
        <path class="b" d="M561.8,131.3c8.4-11.8,7.9-11,10.8-16.6l27.6,16.5c-7.9,21.3-7.9,21.2-14.7,39.4"/>
        <path class="h" d="M589.3,172l-7.5-2.8.7-2.1c5.7-15.3,6.3-16.7,12.8-34.2l-21.1-12.6c-1.5,2.7-3,4.8-9.1,13.4l-6.5-4.7c7.7-10.8,7.7-10.8,10-15.1l2.5-4.7,34,20.3-1.2,3.1c-7.6,20.5-7.8,21.1-13.9,37.3Z"/>
      </g>
      <g>
        <path class="b" d="M531.8,155.5s6.5-17.1,21.1-28.6L579.4,143s-8.2,14.3-8.6,26.5"/>
        <path class="h" d="M574.8,169.6l-8-.2c.3-9.4,4.7-19.7,7.3-24.9l-20.8-12.7c-12.1,10.5-17.7,25-17.7,25.1l-7.5-2.8c.2-.7,7-18.3,22.4-30.3l2.1-1.7,32.2,19.5-1.9,3.4C582.8,145.1,575.1,158.6,574.8,169.6Z"/>
      </g>
      <path class="a" d="M636.4,179.9c-29.7,0-57.7-2.7-78.8-7.6-23.4-5.4-35.3-12.8-35.3-22h8c0,.3.3,7.5,29.2,14.2,20.5,4.8,47.8,7.4,76.9,7.4s56.5-2.6,77-7.4c28.9-6.7,29.2-13.9,29.2-14.2h8c0,9.2-11.9,16.6-35.3,22C694.2,177.2,666.2,179.9,636.4,179.9Z"/>
      <g>
        <path class="b" d="M606.7,157.9a6.5,6.5,0,1,1-6.5-6.5A6.5,6.5,0,0,1,606.7,157.9Z"/>
        <path class="g" d="M600.2,168.4a10.5,10.5,0,1,1,10.5-10.5A10.5,10.5,0,0,1,600.2,168.4Zm0-13a2.5,2.5,0,1,0,2.5,2.5A2.5,2.5,0,0,0,600.2,155.4Z"/>
      </g>
      <g>
        <path class="b" d="M615.1,147.1a6.5,6.5,0,1,1-6.4-6.5A6.5,6.5,0,0,1,615.1,147.1Z"/>
        <path class="g" d="M608.7,157.6a10.5,10.5,0,1,1,10.4-10.5A10.5,10.5,0,0,1,608.7,157.6Zm0-13a2.5,2.5,0,1,0,2.4,2.5A2.5,2.5,0,0,0,608.7,144.6Z"/>
      </g>
      <g>
        <path class="b" d="M621.6,160.1a6.5,6.5,0,1,1-6.5-6.5A6.5,6.5,0,0,1,621.6,160.1Z"/>
        <path class="g" d="M615.1,170.6a10.5,10.5,0,1,1,10.5-10.5A10.5,10.5,0,0,1,615.1,170.6Zm0-13a2.5,2.5,0,1,0,2.5,2.5A2.5,2.5,0,0,0,615.1,157.6Z"/>
      </g>
      <g>
        <path class="b" d="M629.3,149.3a6.5,6.5,0,1,1-6.5-6.5A6.6,6.6,0,0,1,629.3,149.3Z"/>
        <path class="g" d="M622.8,159.8a10.5,10.5,0,1,1,10.5-10.5A10.6,10.6,0,0,1,622.8,159.8Zm0-13a2.5,2.5,0,0,0-2.5,2.5,2.5,2.5,0,0,0,2.5,2.5,2.6,2.6,0,0,0,2.5-2.5A2.5,2.5,0,0,0,622.8,146.8Z"/>
      </g>
      <g>
        <path class="b" d="M646.4,170.2a6.6,6.6,0,0,1-6.5,6.5,6.6,6.6,0,0,1-6.5-6.5,6.5,6.5,0,1,1,13,0Z"/>
        <path class="g" d="M639.9,180.7a10.5,10.5,0,0,1,0-21,10.5,10.5,0,0,1,0,21Zm0-13a2.5,2.5,0,0,0-2.5,2.5,2.6,2.6,0,0,0,2.5,2.5,2.5,2.5,0,0,0,2.5-2.5A2.5,2.5,0,0,0,639.9,167.7Z"/>
      </g>
      <g>
        <path class="b" d="M633.4,166.6a6.5,6.5,0,1,1-6.4-6.5A6.5,6.5,0,0,1,633.4,166.6Z"/>
        <path class="g" d="M627,177.1a10.5,10.5,0,1,1,10.4-10.5A10.5,10.5,0,0,1,627,177.1Zm0-13a2.5,2.5,0,1,0,2.4,2.5A2.5,2.5,0,0,0,627,164.1Z"/>
      </g>
      <g>
        <path class="b" d="M612,170.3a6.5,6.5,0,1,1-6.5-6.5A6.5,6.5,0,0,1,612,170.3Z"/>
        <path class="g" d="M605.5,180.8A10.5,10.5,0,1,1,616,170.3,10.5,10.5,0,0,1,605.5,180.8Zm0-13a2.5,2.5,0,1,0,2.5,2.5A2.5,2.5,0,0,0,605.5,167.8Z"/>
      </g>
      <g>
        <path class="b" d="M598.4,168.1a3.7,3.7,0,1,1-3.7-3.7A3.6,3.6,0,0,1,598.4,168.1Z"/>
        <path class="g" d="M594.7,175.7a7.7,7.7,0,1,1,7.7-7.6A7.6,7.6,0,0,1,594.7,175.7Zm0-8c-.2,0-.3.2-.3.4a.3.3,0,0,0,.3.3.4.4,0,0,0,.4-.3A.4.4,0,0,0,594.7,167.7Z"/>
      </g>
      <path class="a" d="M636.4,265.3c-62.9,0-114.1-51.3-114.1-114.2h8c0,58.5,47.6,106.2,106.1,106.2A106.3,106.3,0,0,0,742.6,151.1h8A114.4,114.4,0,0,1,636.4,265.3Z"/>
      <g>
        <path class="b" d="M698.7,165.5s4.3,6.8,2.9,18.2a23.8,23.8,0,0,0,5.1,18.4"/>
        <path class="e" d="M706.7,206.1a4,4,0,0,1-2.9-1.2,28.2,28.2,0,0,1-6.2-21.7c1.2-9.7-2.1-15.4-2.3-15.6a4,4,0,0,1,1.4-5.5,3.8,3.8,0,0,1,5.4,1.3c.3.3,5,8.2,3.4,20.8a20.1,20.1,0,0,0,4.2,15.2,4.1,4.1,0,0,1-.3,5.7A3.9,3.9,0,0,1,706.7,206.1Z"/>
      </g>
    </g>
    <rect class="i" x="375.9" y="178.8" width="50" height="12"/>
    <rect class="i" x="375.9" y="158.8" width="50" height="12"/>
    <text class="j" transform="translate(545 348) scale(0.96 1)">RAMEN SOUP</text>
    <text class="j" transform="translate(50.1 348) scale(0.96 1)">GERMKNÖDL</text>
    <path class="k" d="M256.1,183.2a2.5,2.5,0,0,1-1.2-.2l-1.2-.5a3,3,0,0,1-1.7-3.9,2.9,2.9,0,0,1,3.9-1.6l1.3.5a2.9,2.9,0,0,1,1.6,3.9A2.8,2.8,0,0,1,256.1,183.2Z"/>
    <path class="a" d="M142.7,235.4C73.5,235.4,0,222.2,0,197.6s73.5-37.9,142.7-37.9S285.3,173,285.3,197.6,211.8,235.4,142.7,235.4Zm0-68.5c-36.9,0-71.5,3.5-97.5,9.9-28,6.9-38,15.3-38,20.8s10,13.8,38,20.7c26,6.4,60.6,9.9,97.5,9.9s71.4-3.5,97.4-9.9c28-6.9,38-15.2,38-20.7s-10-13.9-38-20.8C214.1,170.4,179.5,166.9,142.7,166.9Z"/>
    <path class="b" d="M142.7,223c-22.3,0-60.1-3.5-60.1-16.7s37.8-16.7,60.1-16.7,60,3.5,60,16.7S164.9,223,142.7,223ZM89.9,206.3c1.5,3.4,20.6,9.5,52.8,9.5s51.2-6.1,52.7-9.5c-1.5-3.4-20.6-9.5-52.7-9.5S91.4,202.9,89.9,206.3Z"/>
    <g>
      <path class="b" d="M248,195.1c0,13.5-46.4,24.5-103.6,24.5s-103.5-11-103.5-24.5,46.3-24.5,103.5-24.5S248,181.6,248,195.1Z"/>
      <path class="l" d="M144.4,223.2c-53.2,0-107.1-9.7-107.1-28.1S91.2,167,144.4,167s107.2,9.7,107.2,28.1S197.7,223.2,144.4,223.2Zm0-49c-27.4,0-53.1,2.6-72.4,7.1-21.7,5.1-27.5,11.1-27.5,13.8s5.8,8.7,27.5,13.8c19.3,4.6,45,7.1,72.4,7.1s53.1-2.5,72.4-7.1c21.8-5.1,27.6-11.1,27.6-13.8s-5.8-8.7-27.6-13.8C197.5,176.8,171.8,174.2,144.4,174.2Z"/>
    </g>
    <path class="a" d="M141.8,251.3c-31.8,0-40.6-4-41.6-4.5l-1.1-.6-6-13.3,6.6-3,4.8,10.8c3.1,1,13.2,3.3,37.3,3.3s34.4-2.4,37.4-3.3l4.8-9.6,6.4,3.3-5.9,11.9-1.1.5C182.5,247.3,173.6,251.3,141.8,251.3Z"/>
    <g>
      <path class="b" d="M188.4,176c0,25-28.6,29.7-63.9,29.7S60.6,201,60.6,176s28.6-45.4,63.9-45.4S188.4,150.9,188.4,176Z"/>
      <path class="m" d="M124.5,209.3c-33.4,0-67.5-4-67.5-33.3,0-27,30.2-49,67.5-49S192,149,192,176C192,205.3,157.8,209.3,124.5,209.3Zm0-75.1c-33.3,0-60.3,18.7-60.3,41.8,0,18.5,17.4,26.1,60.3,26.1s60.3-7.6,60.3-26.1C184.8,152.9,157.7,134.2,124.5,134.2Z"/>
    </g>
    <path class="k" d="M115.3,142.3a3.5,3.5,0,0,1-2.5-1l-.9-.9a3.5,3.5,0,0,1,0-5.1,3.5,3.5,0,0,1,5,0l.9.9a3.6,3.6,0,0,1-2.5,6.1Z"/>
    <path class="k" d="M135.1,134.2h-.3a3.6,3.6,0,0,1,0-7.2h.3a3.6,3.6,0,0,1,0,7.2Z"/>
    <path class="k" d="M100.6,135.7a3.7,3.7,0,0,1-3.1-1.7l-.9-1.6a3.6,3.6,0,0,1,1.2-4.9,3.7,3.7,0,0,1,5,1.3l.9,1.5a3.6,3.6,0,0,1-1.3,4.9A2.9,2.9,0,0,1,100.6,135.7Z"/>
    <path class="k" d="M152.5,148.3a2.2,2.2,0,0,1-1.1-.2l-.9-.3a3.5,3.5,0,0,1-2.3-4.5,3.7,3.7,0,0,1,4.6-2.3l.9.3a3.6,3.6,0,0,1,2.2,4.6A3.5,3.5,0,0,1,152.5,148.3Z"/>
    <path class="k" d="M138.6,158.5a3.5,3.5,0,0,1-2.5-1l-1.7-1.7a3.6,3.6,0,0,1,0-5.1,3.5,3.5,0,0,1,5,0l1.8,1.7a3.6,3.6,0,0,1,0,5.1A3.5,3.5,0,0,1,138.6,158.5Z"/>
    <path class="k" d="M99.7,157.7H98.2a3.6,3.6,0,0,1,0-7.2h1.5a3.6,3.6,0,1,1,0,7.2Z"/>
    <path class="k" d="M116.8,173.8a3.6,3.6,0,0,1-3.6-3.6v-2a3.6,3.6,0,0,1,7.2,0v2A3.6,3.6,0,0,1,116.8,173.8Z"/>
    <path class="k" d="M180.8,175.3a3.6,3.6,0,0,1-3.6-3.6v-1.5a3.6,3.6,0,1,1,7.2,0v1.5A3.6,3.6,0,0,1,180.8,175.3Z"/>
    <path class="k" d="M256.6,183.2a2.3,2.3,0,0,1-1.1-.2l-1.2-.5a3,3,0,1,1,2.2-5.5l1.2.5a2.9,2.9,0,0,1,1.7,3.9A3.1,3.1,0,0,1,256.6,183.2Z"/>
    <path class="k" d="M121.9,134.2a3.6,3.6,0,0,1-3.6-3.6v-1.8a3.6,3.6,0,1,1,7.2,0v1.8A3.6,3.6,0,0,1,121.9,134.2Z"/>
    <path class="k" d="M159.1,141.4a4,4,0,0,1-1.5-.3l-2-.9a3.6,3.6,0,0,1-1.9-4.7,3.7,3.7,0,0,1,4.8-1.9l2,.9a3.7,3.7,0,0,1,1.9,4.8A3.7,3.7,0,0,1,159.1,141.4Z"/>
    <path class="k" d="M87.7,165.1a3.6,3.6,0,0,1-3.6-3.6v-.9a3.6,3.6,0,1,1,7.2,0v.9A3.6,3.6,0,0,1,87.7,165.1Z"/>
    <path class="k" d="M65.8,161.6a4.1,4.1,0,0,1-1.9-.5,3.7,3.7,0,0,1-1.2-5l.3-.5a3.6,3.6,0,1,1,6.2,3.8l-.4.5A3.4,3.4,0,0,1,65.8,161.6Z"/>
    <path class="k" d="M147.4,186.7a3.6,3.6,0,0,1-3.2-1.9l-.3-.6a3.6,3.6,0,1,1,6.4-3.3l.3.6a3.6,3.6,0,0,1-1.6,4.9A4.1,4.1,0,0,1,147.4,186.7Z"/>
    <path class="k" d="M247.4,202.7a2.9,2.9,0,0,1-3-3v-.5a3,3,0,0,1,3-3,3.1,3.1,0,0,1,3,3v.5A3,3,0,0,1,247.4,202.7Z"/>
    <path class="k" d="M76.6,216.2a3.7,3.7,0,0,1-3.6-3.1l-.3-2.1a3.6,3.6,0,0,1,3.1-4.1,3.5,3.5,0,0,1,4,3.1l.3,2.1a3.5,3.5,0,0,1-3,4Z"/>
    <path class="k" d="M73.7,152.2a4.5,4.5,0,0,1-1.6-.3l-1.9-.9a3.7,3.7,0,0,1-1.7-4.8,3.6,3.6,0,0,1,4.8-1.7l1.9.9a3.5,3.5,0,0,1,1.7,4.8A3.5,3.5,0,0,1,73.7,152.2Z"/>
    <path class="k" d="M87.7,150.2h-1l-1.4-.4a3.5,3.5,0,0,1-2.5-4.4,3.4,3.4,0,0,1,4.4-2.5l1.4.4a3.6,3.6,0,0,1,2.6,4.4A3.6,3.6,0,0,1,87.7,150.2Z"/>
  </g>
</svg>
