<svg xmlns="http://www.w3.org/2000/svg" viewBox="0 0 280.94 207.65"><g id="Layer_2" data-name="Layer 2"><g id="Layer_1-2" data-name="Layer 1"><path d="M277.69,118.5c-35.62-18-89.78-28.25-148.59-28.25C82,90.25,37,97,2.41,109.26L0,102.47C35.33,90,81.18,83.05,129.1,83.05c59.9,0,115.24,10.57,151.84,29Z" style="fill:#e5e5e5"/><rect x="63.89" y="28.59" width="8" height="90.06" style="fill:#b2a792"/><rect x="153.57" y="70.25" width="8" height="90.06" style="fill:#b2a792"/><rect x="214.9" y="29.62" width="8" height="90.06" style="fill:#b2a792"/><rect x="107.57" y="117.59" width="8" height="90.06" style="fill:#b2a792"/><path d="M92.44,21.18a25.41,25.41,0,1,1-32-16.32A25.41,25.41,0,0,1,92.44,21.18Z" style="fill:#fff"/><path d="M68.29,58.05a29,29,0,1,1,27.58-38h0a29,29,0,0,1-27.58,38Zm0-50.84A21.85,21.85,0,1,0,78.18,9.6,21.8,21.8,0,0,0,68.3,7.21Z" style="fill:#e5e5e5"/><path d="M187.25,72.35a31.21,31.21,0,1,1-39.32-20A31.21,31.21,0,0,1,187.25,72.35Z" style="fill:#fff"/><path d="M157.53,116.82a34.82,34.82,0,1,1,33.14-45.58h0a34.86,34.86,0,0,1-33.14,45.58Zm0-62.43a27.61,27.61,0,1,0,26.27,19.08h0A27.64,27.64,0,0,0,157.55,54.39Z" style="fill:#e5e5e5"/><path d="M97.76,52.9A17.35,17.35,0,1,1,80.41,35.55,17.35,17.35,0,0,1,97.76,52.9Z" style="fill:#fff"/><path d="M80.41,73.85a20.95,20.95,0,1,1,21-20.95A21,21,0,0,1,80.41,73.85Zm0-34.69A13.75,13.75,0,1,0,94.16,52.9,13.75,13.75,0,0,0,80.41,39.16Z" style="fill:#e5e5e5"/><path d="M128.91,123.9a17.35,17.35,0,1,1-17.34-17.35A17.34,17.34,0,0,1,128.91,123.9Z" style="fill:#fff"/><path d="M111.57,144.85a21,21,0,1,1,20.94-20.95A21,21,0,0,1,111.57,144.85Zm0-34.69a13.75,13.75,0,1,0,13.74,13.74A13.76,13.76,0,0,0,111.57,110.16Z" style="fill:#e5e5e5"/><path d="M243.86,35.55a22.1,22.1,0,1,1-22.1-22.09A22.1,22.1,0,0,1,243.86,35.55Z" style="fill:#fff"/><path d="M221.76,61.25a25.7,25.7,0,1,1,25.7-25.7A25.72,25.72,0,0,1,221.76,61.25Zm0-44.19a18.5,18.5,0,1,0,18.5,18.49A18.51,18.51,0,0,0,221.76,17.06Z" style="fill:#e5e5e5"/><path d="M59.36,47.55a13.88,13.88,0,1,1-17.49-8.91A13.89,13.89,0,0,1,59.36,47.55Z" style="fill:#fff"/><path d="M46.14,69.33A17.53,17.53,0,0,1,29.53,57.24a17.48,17.48,0,1,1,33.25-10.8h0A17.52,17.52,0,0,1,46.14,69.33Zm0-27.77a10,10,0,0,0-3.17.51,10.27,10.27,0,1,0,6.35,19.54,10.27,10.27,0,0,0,6.6-13A10.31,10.31,0,0,0,46.15,41.56Z" style="fill:#e5e5e5"/><path d="M232.1,56.56a13.88,13.88,0,1,1-17.49-8.91A13.88,13.88,0,0,1,232.1,56.56Z" style="fill:#fff"/><path d="M218.91,78.33a17.51,17.51,0,1,1,5.39-.86A17.49,17.49,0,0,1,218.91,78.33Zm0-27.76a10.28,10.28,0,1,0,9.78,7.1A10.22,10.22,0,0,0,218.89,50.57Z" style="fill:#e5e5e5"/><rect x="137.34" y="80.1" width="8" height="15.42" transform="translate(-22.92 114.39) rotate(-41.04)" style="fill:#b2a792"/><rect x="28.28" y="38.08" width="8" height="15.42" transform="translate(-22.59 57.11) rotate(-66.48)" style="fill:#b2a792"/><rect x="232.54" y="33.76" width="20.27" height="8" transform="translate(-2.4 53.82) rotate(-12.59)" style="fill:#b2a792"/><rect x="176.11" y="60.43" width="15.34" height="8" transform="translate(1.17 132.1) rotate(-39.65)" style="fill:#b2a792"/></g></g></svg>