<svg xmlns="http://www.w3.org/2000/svg" viewBox="0 0 69.5 30"><path d="M53.89,30a27.06,27.06,0,0,0-38.28,0L0,14.39a49.12,49.12,0,0,1,69.5,0Z" style="fill:#fff"/><path d="M15.71,12.76l2.88-1.22a2.22,2.22,0,0,1,1.74-.14,1.34,1.34,0,0,1,.75.75h0a1.41,1.41,0,0,1-.33,1.62,1.48,1.48,0,0,1,1.69.9h0c.41,1-.13,1.88-1.47,2.45l-2.89,1.23Zm3.44,1.18c.48-.2.67-.47.53-.8v0c-.13-.3-.44-.38-.9-.18l-1,.43.41,1Zm1.13,2c.47-.21.67-.5.52-.83v0c-.13-.3-.46-.4-1-.18l-1.18.5.44,1Z" style="fill:red"/><path d="M46.43,15.51l1.27-.72a3.17,3.17,0,0,0,1.59,1.38c.43.16.71.1.8-.15h0c.09-.24-.05-.44-.76-.91-1.11-.73-1.91-1.43-1.47-2.6v0c.4-1.05,1.52-1.5,2.89-1a3.8,3.8,0,0,1,2.06,1.64l-1.2.82a3,3,0,0,0-1.39-1.16c-.38-.15-.63-.06-.71.15h0c-.1.27,0,.45.77.93,1.21.77,1.86,1.5,1.46,2.57v0c-.43,1.16-1.61,1.51-3,1A4.26,4.26,0,0,1,46.43,15.51Z" style="fill:red"/><path d="M33.91,8.4H32.08V6.92h5.34V8.4H35.59v8.16H33.91Z" style="fill:red"/><rect x="40.88" y="11.23" width="2.23" height="2.23" transform="translate(-0.67 22.12) rotate(-29.29)" style="fill:red"/><rect x="26.2" y="11.23" width="2.23" height="2.23" transform="translate(3.17 30.1) rotate(-60.65)" style="fill:red"/></svg>