<svg xmlns="http://www.w3.org/2000/svg" viewBox="0 0 285.31 126.04"><g id="Layer_2" data-name="Layer 2"><g id="Layer_1-2" data-name="Layer 1"><path d="M256.06,58a2.89,2.89,0,0,1-1.11-.22l-1.25-.5a3,3,0,0,1,2.23-5.57l1.25.5A3,3,0,0,1,256.06,58Z" style="fill:#2b2b2b"/><path d="M142.66,110.22C73.5,110.22,0,97,0,72.36S73.5,34.49,142.66,34.49,285.31,47.76,285.31,72.36,211.81,110.22,142.66,110.22Zm0-68.52c-36.86,0-71.48,3.52-97.47,9.93-28,6.9-38,15.23-38,20.73s10,13.83,38,20.73c26,6.4,60.61,9.93,97.47,9.93s71.47-3.53,97.46-9.93c28-6.9,38-15.24,38-20.73s-10-13.83-38-20.73C214.13,45.22,179.52,41.7,142.66,41.7Z" style="fill:#e5e5e5"/><path d="M142.66,97.81c-22.3,0-60-3.52-60-16.7s37.72-16.71,60-16.71,60,3.52,60,16.71S165,97.81,142.66,97.81ZM89.87,81.11c1.56,3.38,20.67,9.49,52.79,9.49s51.22-6.11,52.78-9.49c-1.56-3.39-20.67-9.5-52.78-9.5S91.43,77.72,89.87,81.11Z" style="fill:#fff"/><path d="M248,69.89c0,13.51-46.36,24.46-103.56,24.46S40.86,83.4,40.86,69.89,87.22,45.42,144.41,45.42,248,56.38,248,69.89Z" style="fill:#fff"/><path d="M144.41,98C91.17,98,37.26,88.31,37.26,69.89S91.17,41.82,144.41,41.82s107.16,9.64,107.16,28.07S197.66,98,144.41,98Zm0-48.93C117,49,91.32,51.54,72,56.09c-21.75,5.14-27.56,11.09-27.56,13.8S50.27,78.54,72,83.68c19.29,4.56,45,7.07,72.39,7.07s53.1-2.51,72.4-7.07c21.75-5.14,27.56-11.09,27.56-13.79s-5.81-8.66-27.56-13.8C197.51,51.54,171.8,49,144.41,49Z" style="fill:#ffea41"/><path d="M141.82,126c-31.77,0-40.67-4-41.58-4.45L99.09,121l-6-13.37,6.59-2.93,4.8,10.8c3,.94,13.19,3.32,37.29,3.32,24.25,0,34.37-2.41,37.38-3.35l4.78-9.56,6.44,3.22-5.95,11.91-1.08.54C182.48,122.05,173.59,126,141.82,126Z" style="fill:#e5e5e5"/><path d="M188.37,50.74c0,25.05-28.61,29.74-63.9,29.74S60.56,75.79,60.56,50.74,89.17,5.39,124.47,5.39,188.37,25.7,188.37,50.74Z" style="fill:#fff"/><path d="M124.47,84.08c-33.38,0-67.51-4-67.51-33.34,0-27,30.29-48.95,67.51-48.95s67.5,22,67.5,49C192,80.12,157.85,84.08,124.47,84.08Zm0-75.09c-33.25,0-60.3,18.73-60.3,41.75,0,18.57,17.47,26.14,60.3,26.14s60.3-7.57,60.3-26.14C184.77,27.72,157.72,9,124.47,9Z" style="fill:#e9c424"/><path d="M115.3,17.11a3.59,3.59,0,0,1-2.55-1.06l-.9-.9a3.6,3.6,0,0,1,5.1-5.09l.9.9a3.61,3.61,0,0,1-2.55,6.15Z" style="fill:#2b2b2b"/><path d="M135.11,9h-.3a3.6,3.6,0,1,1,0-7.2h.3a3.6,3.6,0,0,1,0,7.2Z" style="fill:#2b2b2b"/><path d="M100.6,10.51a3.6,3.6,0,0,1-3.1-1.76l-.9-1.52a3.6,3.6,0,0,1,6.19-3.68l.9,1.51a3.61,3.61,0,0,1-3.09,5.45Z" style="fill:#2b2b2b"/><path d="M152.52,23.11a3.77,3.77,0,0,1-1.14-.18l-.9-.3a3.6,3.6,0,0,1,2.28-6.84l.9.3a3.6,3.6,0,0,1-1.14,7Z" style="fill:#2b2b2b"/><path d="M138.64,33.32a3.59,3.59,0,0,1-2.53-1l-1.73-1.72a3.6,3.6,0,0,1,5.06-5.12l1.73,1.71a3.61,3.61,0,0,1-2.53,6.17Z" style="fill:#2b2b2b"/><path d="M99.69,32.46h-1.5a3.6,3.6,0,1,1,0-7.2h1.5a3.6,3.6,0,1,1,0,7.2Z" style="fill:#2b2b2b"/><path d="M116.8,48.63A3.61,3.61,0,0,1,113.2,45V42.94a3.6,3.6,0,1,1,7.2,0V45A3.61,3.61,0,0,1,116.8,48.63Z" style="fill:#2b2b2b"/><path d="M180.81,50.13a3.61,3.61,0,0,1-3.6-3.61V45a3.61,3.61,0,0,1,7.21,0v1.5A3.61,3.61,0,0,1,180.81,50.13Z" style="fill:#2b2b2b"/><path d="M256.63,58a2.89,2.89,0,0,1-1.11-.22l-1.25-.5a3,3,0,0,1,2.23-5.57l1.25.5A3,3,0,0,1,256.63,58Z" style="fill:#2b2b2b"/><path d="M121.9,9a3.6,3.6,0,0,1-3.6-3.6V3.6a3.61,3.61,0,0,1,7.21,0V5.39A3.61,3.61,0,0,1,121.9,9Z" style="fill:#2b2b2b"/><path d="M159.06,16.21a3.68,3.68,0,0,1-1.44-.3l-2-.9a3.6,3.6,0,0,1,2.88-6.6l2,.9a3.6,3.6,0,0,1-1.44,6.9Z" style="fill:#2b2b2b"/><path d="M87.69,39.92a3.61,3.61,0,0,1-3.61-3.6v-.9a3.61,3.61,0,0,1,7.21,0v.9A3.6,3.6,0,0,1,87.69,39.92Z" style="fill:#2b2b2b"/><path d="M65.77,36.39A3.6,3.6,0,0,1,62.7,30.9l.34-.54a3.6,3.6,0,1,1,6.13,3.78l-.33.54A3.6,3.6,0,0,1,65.77,36.39Z" style="fill:#2b2b2b"/><path d="M147.42,61.53a3.6,3.6,0,0,1-3.22-2l-.3-.6a3.6,3.6,0,1,1,6.44-3.22l.3.6a3.6,3.6,0,0,1-3.22,5.21Z" style="fill:#2b2b2b"/><path d="M247.38,77.53a3,3,0,0,1-3-3V74a3,3,0,1,1,6,0v.5A3,3,0,0,1,247.38,77.53Z" style="fill:#2b2b2b"/><path d="M76.58,91A3.61,3.61,0,0,1,73,87.85l-.3-2.1a3.61,3.61,0,0,1,7.14-1l.3,2.1a3.6,3.6,0,0,1-3.06,4.07A3,3,0,0,1,76.58,91Z" style="fill:#2b2b2b"/><path d="M73.68,27a3.59,3.59,0,0,1-1.53-.34l-1.9-.89a3.6,3.6,0,0,1,3.06-6.52l1.9.89A3.6,3.6,0,0,1,73.68,27Z" style="fill:#2b2b2b"/><path d="M87.69,25a3.65,3.65,0,0,1-1-.13l-1.44-.4a3.6,3.6,0,1,1,1.92-6.94l1.45.4a3.6,3.6,0,0,1-1,7.07Z" style="fill:#2b2b2b"/></g></g></svg>