<svg xmlns="http://www.w3.org/2000/svg" viewBox="0 0 50 50"><path d="M50,25A25,25,0,1,1,25,0,25,25,0,0,1,50,25Z" style="fill:#fff"/><path d="M34.55,37.43H15.45V11.74h19.1Zm-17.5-1.6H33V13.34H17.05Z" style="fill:#959595"/><path d="M25,21.45a2.91,2.91,0,1,1,2.91-2.91A2.91,2.91,0,0,1,25,21.45Zm0-4.21a1.31,1.31,0,1,0,1.31,1.3A1.31,1.31,0,0,0,25,17.24Z" style="fill:#959595"/><path d="M25,34.45a6,6,0,1,1,6.05-6A6,6,0,0,1,25,34.45ZM25,24a4.45,4.45,0,1,0,4.45,4.45A4.45,4.45,0,0,0,25,24Z" style="fill:#959595"/></svg>