<svg xmlns="http://www.w3.org/2000/svg" viewBox="0 0 393 49"><defs><style>.cls-1{fill:red;stroke:red;stroke-miterlimit:10;stroke-width:6px;}.cls-2{fill:#fff;}</style></defs><g id="Layer_2" data-name="Layer 2"><g id="Layer_1-2" data-name="Layer 1"><rect class="cls-1" x="3" y="3" width="387" height="43"/><path class="cls-2" d="M24,16.69v16.8H18.58V27.3h-5v6.19H8.16V16.69h5.42v6h5v-6Z"/><path class="cls-2" d="M30.38,32.75a8.27,8.27,0,0,1-3.24-3.13A8.84,8.84,0,0,1,26,25.09a8.8,8.8,0,0,1,1.17-4.52,8.2,8.2,0,0,1,3.24-3.13,10.17,10.17,0,0,1,9.32,0,8.2,8.2,0,0,1,3.24,3.13,8.8,8.8,0,0,1,1.17,4.52,8.84,8.84,0,0,1-1.17,4.53,8.27,8.27,0,0,1-3.24,3.13,10.17,10.17,0,0,1-9.32,0Zm6.49-4a3.64,3.64,0,0,0,1.29-1.47,4.84,4.84,0,0,0,.49-2.22,4.9,4.9,0,0,0-.49-2.22,3.61,3.61,0,0,0-1.29-1.46A3.42,3.42,0,0,0,35,20.89a3.36,3.36,0,0,0-1.82.52,3.56,3.56,0,0,0-1.3,1.46,4.9,4.9,0,0,0-.48,2.22,4.84,4.84,0,0,0,.48,2.22,3.59,3.59,0,0,0,1.3,1.47,3.35,3.35,0,0,0,1.82.51A3.41,3.41,0,0,0,36.87,28.78Z"/><path class="cls-2" d="M52.63,27.92l-1.22,1.42v4.15H46.08V16.69h5.33v6.1l5.28-6.1h5.9l-6.43,7.39,6.75,9.41H56.64Z"/><path class="cls-2" d="M70.19,27.92,69,29.34v4.15H63.64V16.69H69v6.1l5.28-6.1h5.9l-6.43,7.39,6.75,9.41H74.2Z"/><path class="cls-2" d="M92.15,30.57h-6.1L85,33.49H79.46l7-16.8h5.33l7,16.8h-5.6Zm-1.49-4.08L89.1,22.26l-1.56,4.23Z"/><path class="cls-2" d="M99.71,16.69h5.42v16.8H99.71Z"/><path class="cls-2" d="M107.74,16.69h7.92a10.53,10.53,0,0,1,4.74,1,7.58,7.58,0,0,1,3.19,2.92,8.48,8.48,0,0,1,1.14,4.46,8.51,8.51,0,0,1-1.14,4.47,7.56,7.56,0,0,1-3.19,2.91,10.53,10.53,0,0,1-4.74,1h-7.92Zm7.69,12.39a3.77,3.77,0,0,0,2.79-1,3.94,3.94,0,0,0,1-2.94,4,4,0,0,0-1-2.94,3.8,3.8,0,0,0-2.79-1h-2.27v8Z"/><path class="cls-2" d="M130.47,32.75a8.27,8.27,0,0,1-3.24-3.13,8.84,8.84,0,0,1-1.17-4.53,8.8,8.8,0,0,1,1.17-4.52,8.2,8.2,0,0,1,3.24-3.13,10.17,10.17,0,0,1,9.32,0A8.17,8.17,0,0,1,143,20.57a8.71,8.71,0,0,1,1.18,4.52A8.75,8.75,0,0,1,143,29.62a8.24,8.24,0,0,1-3.23,3.13,10.17,10.17,0,0,1-9.32,0Zm6.48-4a3.59,3.59,0,0,0,1.3-1.47,4.84,4.84,0,0,0,.48-2.22,4.9,4.9,0,0,0-.48-2.22,3.56,3.56,0,0,0-1.3-1.46,3.36,3.36,0,0,0-1.82-.52,3.39,3.39,0,0,0-1.83.52A3.61,3.61,0,0,0,132,22.87a4.78,4.78,0,0,0-.49,2.22,4.72,4.72,0,0,0,.49,2.22,3.64,3.64,0,0,0,1.29,1.47,3.39,3.39,0,0,0,1.83.51A3.35,3.35,0,0,0,137,28.78Z"/><path class="cls-2" d="M150.53,28.38a3,3,0,0,1,.85,2.23,4.82,4.82,0,0,1-.16,1.25,12.79,12.79,0,0,1-.74,1.9l-1.6,3.57h-3.22l1.15-4a2.59,2.59,0,0,1-1.1-1.05,3.19,3.19,0,0,1-.39-1.62,3.09,3.09,0,0,1,5.21-2.23Z"/><path class="cls-2" d="M160.69,33.24a6.2,6.2,0,0,1-2.52-1.86l2.92-3.6A5.46,5.46,0,0,0,162.35,29a2.34,2.34,0,0,0,1.29.41,1.63,1.63,0,0,0,1.3-.53,2.4,2.4,0,0,0,.44-1.56V21h-5.46V16.69h10.81V27A7,7,0,0,1,169,32.16a6.6,6.6,0,0,1-4.94,1.72A8.67,8.67,0,0,1,160.69,33.24Z"/><path class="cls-2" d="M184.16,30.57h-6.11L177,33.49h-5.51l7-16.8h5.33l7,16.8h-5.6Zm-1.49-4.08-1.56-4.23-1.56,4.23Z"/><path class="cls-2" d="M203.33,17.46a5.81,5.81,0,0,1,2.55,2.21,6.29,6.29,0,0,1,.89,3.36,6.29,6.29,0,0,1-.89,3.36,5.87,5.87,0,0,1-2.55,2.21,9.17,9.17,0,0,1-3.88.77h-2.32v4.12h-5.42V16.69h7.74A9.17,9.17,0,0,1,203.33,17.46Zm-2.57,7a2.19,2.19,0,0,0,0-2.9,2.33,2.33,0,0,0-1.66-.52h-2V25h2A2.33,2.33,0,0,0,200.76,24.48Z"/><path class="cls-2" d="M219.72,30.57h-6.11l-1.08,2.92H207l7-16.8h5.33l7,16.8h-5.6Zm-1.49-4.08-1.56-4.23-1.56,4.23Z"/><path class="cls-2" d="M243.11,16.69v16.8h-4.45l-6.11-7.63v7.63h-5.28V16.69h4.45l6.11,7.64V16.69Z"/><path class="cls-2" d="M254.08,30.12a3.6,3.6,0,0,1-1.36-1.43,4.19,4.19,0,0,1-.5-2,4.12,4.12,0,0,1,.5-2A3.61,3.61,0,0,1,256,22.72a3.78,3.78,0,0,1,1.93.5,3.64,3.64,0,0,1,1.37,1.41,4,4,0,0,1,.51,2,4.09,4.09,0,0,1-.51,2,3.63,3.63,0,0,1-1.37,1.43,3.7,3.7,0,0,1-1.93.52A3.66,3.66,0,0,1,254.08,30.12Z"/><path class="cls-2" d="M269.57,33.24a6.2,6.2,0,0,1-2.52-1.86l2.92-3.6A5.46,5.46,0,0,0,271.23,29a2.32,2.32,0,0,0,1.29.41,1.61,1.61,0,0,0,1.29-.53,2.34,2.34,0,0,0,.45-1.56V21H268.8V16.69h10.81V27a7,7,0,0,1-1.69,5.15A6.6,6.6,0,0,1,273,33.88,8.64,8.64,0,0,1,269.57,33.24Z"/><path class="cls-2" d="M293,30.57h-6.11l-1.08,2.92h-5.51l7-16.8h5.32l7,16.8h-5.6Zm-1.49-4.08L290,22.26l-1.57,4.23Z"/><path class="cls-2" d="M316.43,16.69v16.8H312l-6.11-7.63v7.63h-5.28V16.69H305l6.11,7.64V16.69Z"/><path class="cls-2" d="M321,31.79a8,8,0,0,1-2.06-5.86V16.69h5.42v9.08a4.5,4.5,0,0,0,.63,2.68,2.4,2.4,0,0,0,3.65,0,4.5,4.5,0,0,0,.63-2.68V16.69h5.32v9.24a8,8,0,0,1-2.06,5.86,9,9,0,0,1-11.53,0Z"/><path class="cls-2" d="M348,30.57h-6.11l-1.08,2.92H335.3l7-16.8h5.33l7,16.8h-5.6Zm-1.5-4.08-1.56-4.23-1.56,4.23Z"/><path class="cls-2" d="M362.43,29.27H361v4.22h-5.41V16.69h7.73a9.14,9.14,0,0,1,3.88.77,5.81,5.81,0,0,1,2.55,2.21,6.21,6.21,0,0,1,.9,3.36,6.12,6.12,0,0,1-.78,3.14,5.73,5.73,0,0,1-2.25,2.14L371,33.49h-5.78Zm2.16-7.69a2.32,2.32,0,0,0-1.65-.52h-2V25h2a2.32,2.32,0,0,0,1.65-.52,1.88,1.88,0,0,0,.55-1.45A1.88,1.88,0,0,0,364.59,21.58Z"/><path class="cls-2" d="M382.2,27.4v6.09h-5.42V27.33l-6.06-10.64h5.72l3.28,5.81L383,16.69h5.23Z"/></g></g></svg>