<svg xmlns="http://www.w3.org/2000/svg" viewBox="0 0 273.51 273.51"><path d="M273.51,136.75A136.76,136.76,0,1,1,136.75,0,136.76,136.76,0,0,1,273.51,136.75Z" style="fill:#d6d6d6"/><path d="M99.32,31.81l1.14-2.43a3.21,3.21,0,0,0,2.64.55c1-.32,1.48-1.13,1-2.57l-2.43-8,2.8-.86L107,26.64a4.78,4.78,0,0,1-.16,3.67,4.64,4.64,0,0,1-2.88,2.13A5.29,5.29,0,0,1,99.32,31.81Z" style="fill:red"/><path d="M113.43,16.44,116,16l7.77,11.87-2.94.53-1.68-2.66-5.39,1-.66,3.07-2.86.51Zm4.3,7-2.44-3.83-1,4.44Z" style="fill:red"/><path d="M125.91,14.74l5.29-.25c3.09-.15,5,1.59,5.17,4.24v0c.14,3-2.11,4.66-5,4.8l-2.16.1.18,3.88-2.84.14ZM131.33,21A2,2,0,0,0,133.49,19v0c-.06-1.28-1-1.92-2.41-1.85l-2.2.11.19,3.95Z" style="fill:red"/><path d="M139.57,20.74v0a6.89,6.89,0,0,1,13.72,1.14v0a6.89,6.89,0,0,1-13.73-1.13Zm10.76.92v0a3.94,3.94,0,0,0-3.56-4.39,3.88,3.88,0,0,0-4.22,3.69v0a3.93,3.93,0,0,0,3.56,4.39A3.88,3.88,0,0,0,150.33,21.66Z" style="fill:red"/><path d="M157.41,15.77l3,.76.42,9.17,5-7.82,2.37.61.62,9.27,4.79-7.84,2.89.74-7.54,11.55-2.4-.62-.73-8.94-4.94,7.49-2.41-.62Z" style="fill:red"/><path d="M67.54,222.19l4.26,3.15c2.49,1.84,2.9,4.42,1.32,6.55l0,0c-1.78,2.41-4.58,2.27-6.92.54l-1.74-1.29-2.32,3.13-2.29-1.7Zm.22,8.29a2,2,0,0,0,3-.23l0,0c.76-1,.45-2.11-.69-3L68.31,226,66,229.14Z" style="fill:red"/><path d="M74,235l0,0a6.9,6.9,0,0,1,12.06,6.68l0,0A6.9,6.9,0,0,1,74,235Zm9.43,5.26,0,0A3.94,3.94,0,0,0,82,234.71a3.88,3.88,0,0,0-5.37,1.63l0,0A4,4,0,0,0,78,241.84,3.87,3.87,0,0,0,83.4,240.21Z" style="fill:red"/><path d="M89.79,236.5l2.87,1.05-.48,9.16,5.74-7.29,2.3.83-.27,9.28,5.51-7.33,2.81,1L99.65,254l-2.33-.84.14-9-5.64,7-2.33-.85Z" style="fill:red"/><path d="M110.35,243.43l5,.94c4,.76,6.25,4,5.58,7.61v0c-.68,3.58-4,5.84-8,5.09l-5-.94Zm3,11.15a3.7,3.7,0,0,0,4.56-3.08v0a3.72,3.72,0,0,0-3.12-4.56l-2.16-.41-1.45,7.68Z" style="fill:red"/><path d="M124.74,245.88l9.76.62-.16,2.53-6.93-.44-.17,2.62,6.1.39-.16,2.53-6.1-.38-.17,2.71,7,.45-.16,2.53-9.85-.62Z" style="fill:red"/><path d="M137.3,246.51l5.92-.32a5.2,5.2,0,0,1,3.85,1.11,4.09,4.09,0,0,1,1.27,2.9v0a4,4,0,0,1-2.56,4.16l3.41,4.46-3.33.17-3-4-2.24.12.22,4.14-2.85.16Zm6.08,6c1.38-.07,2.14-.86,2.08-2v0c-.07-1.22-1-1.8-2.34-1.73l-2.83.16.2,3.71Z" style="fill:red"/><path d="M157.67,251.13v0a6.58,6.58,0,0,1,5-8.08,6.7,6.7,0,0,1,5.44.76l-1.28,2.46a4.82,4.82,0,0,0-3.57-.66,3.84,3.84,0,0,0-2.72,4.8v0a3.85,3.85,0,0,0,4.6,3.1,4.67,4.67,0,0,0,3-2.27l2.19,1.37a6.64,6.64,0,0,1-4.63,3.48A6.56,6.56,0,0,1,157.67,251.13Z" style="fill:red"/><path d="M174.19,239.63l2.46-.93,9.84,10.21L183.71,250l-2.15-2.3-5.12,1.95-.07,3.14-2.71,1Zm5.52,6.06-3.1-3.31-.11,4.54Z" style="fill:red"/><path d="M183.73,235.91l2.69-1.49,5.64,3.15.33-6.45,2.69-1.49L201.35,241l-2.48,1.37-4.09-7.41-.52,6.61-.06,0-5.81-3.05,4.07,7.36L190,247.25Z" style="fill:red"/><path d="M197.72,227.8l4.26-3.14c2.48-1.84,5.08-1.47,6.65.66l0,0c1.78,2.41.83,5.05-1.51,6.77l-1.74,1.29,2.3,3.13-2.29,1.69Zm8,2.23a2,2,0,0,0,.65-2.92l0,0c-.76-1-1.88-1.05-3-.21l-1.77,1.31,2.35,3.19Z" style="fill:red"/><rect x="134.28" y="53.2" width="4.95" height="4.95" style="fill:#fff"/><rect x="114.47" y="53.2" width="4.95" height="4.95" style="fill:#fff"/><rect x="114.47" y="63.31" width="4.95" height="4.95" style="fill:#fff"/><rect x="94.67" y="63.31" width="4.95" height="4.95" style="fill:#fff"/><rect x="94.67" y="73.42" width="4.95" height="4.95" style="fill:#fff"/><rect x="94.67" y="83.53" width="4.95" height="4.95" style="fill:#fff"/><rect x="94.67" y="93.64" width="4.95" height="4.95" style="fill:#fff"/><rect x="94.67" y="103.75" width="4.95" height="4.95" style="fill:#fff"/><rect x="94.67" y="113.86" width="4.95" height="4.95" style="fill:#fff"/><rect x="94.67" y="123.96" width="4.95" height="4.95" style="fill:#fff"/><rect x="94.67" y="63.11" width="4.95" height="4.95" style="fill:#fff"/><rect x="94.67" y="52.79" width="4.95" height="4.95" style="fill:#fff"/><rect x="154.08" y="53.2" width="4.95" height="4.95" style="fill:#fff"/><rect x="154.08" y="63.31" width="4.95" height="4.95" style="fill:#fff"/><rect x="124.38" y="58.15" width="4.95" height="4.95" style="fill:#fff"/><rect x="124.38" y="47.84" width="4.95" height="4.95" style="fill:#fff"/><rect x="104.57" y="58.15" width="4.95" height="4.95" style="fill:#fff"/><rect x="104.57" y="68.26" width="4.95" height="4.95" style="fill:#fff"/><rect x="104.57" y="78.37" width="4.95" height="4.95" style="fill:#fff"/><rect x="104.57" y="88.48" width="4.95" height="4.95" style="fill:#fff"/><rect x="104.57" y="98.59" width="4.95" height="4.95" style="fill:#fff"/><rect x="104.57" y="108.7" width="4.95" height="4.95" style="fill:#fff"/><rect x="104.57" y="47.91" width="4.95" height="4.95" style="fill:#fff"/><rect x="74.86" y="73.42" width="4.95" height="4.95" style="fill:#fff"/><rect x="74.86" y="83.53" width="4.95" height="4.95" style="fill:#fff"/><rect x="74.86" y="93.64" width="4.95" height="4.95" style="fill:#fff"/><rect x="74.86" y="103.75" width="4.95" height="4.95" style="fill:#fff"/><rect x="74.86" y="113.86" width="4.95" height="4.95" style="fill:#fff"/><rect x="74.86" y="123.96" width="4.95" height="4.95" style="fill:#fff"/><rect x="74.86" y="134.07" width="4.95" height="4.95" style="fill:#fff"/><rect x="74.86" y="144.18" width="4.95" height="4.95" style="fill:#fff"/><rect x="74.86" y="154.29" width="4.95" height="4.95" style="fill:#fff"/><rect x="84.76" y="68.26" width="4.95" height="4.95" style="fill:#fff"/><rect x="84.76" y="78.37" width="4.95" height="4.95" style="fill:#fff"/><rect x="84.76" y="88.48" width="4.95" height="4.95" style="fill:#fff"/><rect x="84.76" y="98.59" width="4.95" height="4.95" style="fill:#fff"/><rect x="84.76" y="108.7" width="4.95" height="4.95" style="fill:#fff"/><rect x="84.76" y="118.81" width="4.95" height="4.95" style="fill:#fff"/><rect x="84.76" y="128.92" width="4.95" height="4.95" style="fill:#fff"/><rect x="84.76" y="139.02" width="4.95" height="4.95" style="fill:#fff"/><rect x="64.96" y="78.37" width="4.95" height="4.95" style="fill:#fff"/><rect x="55.05" y="64.76" width="4.95" height="4.95" style="fill:#fff"/><rect x="55.05" y="103.75" width="4.95" height="4.95" style="fill:#fff"/><rect x="55.05" y="113.86" width="4.95" height="4.95" style="fill:#fff"/><rect x="55.05" y="123.96" width="4.95" height="4.95" style="fill:#fff"/><rect x="55.05" y="134.07" width="4.95" height="4.95" style="fill:#fff"/><rect x="55.05" y="144.18" width="4.95" height="4.95" style="fill:#fff"/><rect x="55.05" y="154.29" width="4.95" height="4.95" style="fill:#fff"/><rect x="55.05" y="164.4" width="4.95" height="4.95" style="fill:#fff"/><rect x="55.05" y="174.51" width="4.95" height="4.95" style="fill:#fff"/><rect x="35.25" y="113.86" width="4.95" height="4.95" style="fill:#fff"/><rect x="64.96" y="88.48" width="4.95" height="4.95" style="fill:#fff"/><rect x="64.96" y="98.59" width="4.95" height="4.95" style="fill:#fff"/><rect x="64.96" y="108.7" width="4.95" height="4.95" style="fill:#fff"/><rect x="64.96" y="118.81" width="4.95" height="4.95" style="fill:#fff"/><rect x="64.96" y="128.92" width="4.95" height="4.95" style="fill:#fff"/><rect x="64.96" y="139.02" width="4.95" height="4.95" style="fill:#fff"/><rect x="64.96" y="149.13" width="4.95" height="4.95" style="fill:#fff"/><rect x="64.96" y="159.24" width="4.95" height="4.95" style="fill:#fff"/><rect x="64.96" y="169.35" width="4.95" height="4.95" style="fill:#fff"/><rect x="64.96" y="179.46" width="4.95" height="4.95" style="fill:#fff"/><rect x="45.15" y="128.92" width="4.95" height="4.95" style="fill:#fff"/><rect x="45.15" y="139.02" width="4.95" height="4.95" style="fill:#fff"/><rect x="45.15" y="149.13" width="4.95" height="4.95" style="fill:#fff"/><rect x="144.18" y="48.05" width="4.95" height="4.95" style="fill:#fff"/><rect x="144.18" y="58.15" width="4.95" height="4.95" style="fill:#fff"/><rect x="163.99" y="58.15" width="4.95" height="4.95" style="fill:#fff"/><rect x="163.99" y="68.26" width="4.95" height="4.95" style="fill:#fff"/><rect x="163.99" y="78.37" width="4.95" height="4.95" style="fill:#fff"/><rect x="163.99" y="88.48" width="4.95" height="4.95" style="fill:#fff"/><rect x="163.99" y="98.59" width="4.95" height="4.95" style="fill:#fff"/><rect x="163.99" y="108.7" width="4.95" height="4.95" style="fill:#fff"/><rect x="163.99" y="48.42" width="4.95" height="4.95" style="fill:#fff"/><rect x="173.89" y="63.11" width="4.95" height="4.95" style="fill:#fff"/><rect x="173.89" y="73.21" width="4.95" height="4.95" style="fill:#fff"/><rect x="173.89" y="83.32" width="4.95" height="4.95" style="fill:#fff"/><rect x="173.89" y="93.43" width="4.95" height="4.95" style="fill:#fff"/><rect x="173.89" y="103.54" width="4.95" height="4.95" style="fill:#fff"/><rect x="173.89" y="113.65" width="4.95" height="4.95" style="fill:#fff"/><rect x="173.89" y="123.76" width="4.95" height="4.95" style="fill:#fff"/><rect x="183.79" y="68.06" width="4.95" height="4.95" style="fill:#fff"/><rect x="183.79" y="78.17" width="4.95" height="4.95" style="fill:#fff"/><rect x="183.79" y="88.28" width="4.95" height="4.95" style="fill:#fff"/><rect x="183.79" y="98.38" width="4.95" height="4.95" style="fill:#fff"/><rect x="183.79" y="108.49" width="4.95" height="4.95" style="fill:#fff"/><rect x="183.79" y="118.6" width="4.95" height="4.95" style="fill:#fff"/><rect x="183.79" y="128.71" width="4.95" height="4.95" style="fill:#fff"/><rect x="183.79" y="138.82" width="4.95" height="4.95" style="fill:#fff"/><rect x="203.6" y="78.17" width="4.95" height="4.95" style="fill:#fff"/><rect x="223.4" y="78.17" width="4.95" height="4.95" style="fill:#fff"/><rect x="193.7" y="73.01" width="4.95" height="4.95" style="fill:#fff"/><rect x="193.7" y="83.12" width="4.95" height="4.95" style="fill:#fff"/><rect x="193.7" y="93.23" width="4.95" height="4.95" style="fill:#fff"/><rect x="193.7" y="103.34" width="4.95" height="4.95" style="fill:#fff"/><rect x="193.7" y="113.45" width="4.95" height="4.95" style="fill:#fff"/><rect x="193.7" y="123.55" width="4.95" height="4.95" style="fill:#fff"/><rect x="193.7" y="133.66" width="4.95" height="4.95" style="fill:#fff"/><rect x="193.7" y="143.77" width="4.95" height="4.95" style="fill:#fff"/><rect x="193.7" y="153.88" width="4.95" height="4.95" style="fill:#fff"/><rect x="203.6" y="88.48" width="4.95" height="4.95" style="fill:#fff"/><rect x="203.6" y="98.59" width="4.95" height="4.95" style="fill:#fff"/><rect x="203.6" y="108.7" width="4.95" height="4.95" style="fill:#fff"/><rect x="203.6" y="118.81" width="4.95" height="4.95" style="fill:#fff"/><rect x="203.6" y="128.92" width="4.95" height="4.95" style="fill:#fff"/><rect x="203.6" y="139.02" width="4.95" height="4.95" style="fill:#fff"/><rect x="203.6" y="149.13" width="4.95" height="4.95" style="fill:#fff"/><rect x="203.6" y="159.24" width="4.95" height="4.95" style="fill:#fff"/><rect x="203.6" y="169.35" width="4.95" height="4.95" style="fill:#fff"/><rect x="203.6" y="179.46" width="4.95" height="4.95" style="fill:#fff"/><rect x="223.4" y="128.92" width="4.95" height="4.95" style="fill:#fff"/><rect x="213.5" y="103.75" width="4.95" height="4.95" style="fill:#fff"/><rect x="213.5" y="113.86" width="4.95" height="4.95" style="fill:#fff"/><rect x="213.5" y="123.96" width="4.95" height="4.95" style="fill:#fff"/><rect x="213.5" y="134.07" width="4.95" height="4.95" style="fill:#fff"/><rect x="213.5" y="144.18" width="4.95" height="4.95" style="fill:#fff"/><rect x="213.5" y="154.29" width="4.95" height="4.95" style="fill:#fff"/><rect x="213.5" y="164.4" width="4.95" height="4.95" style="fill:#fff"/><rect x="213.5" y="174.51" width="4.95" height="4.95" style="fill:#fff"/><rect x="223.4" y="139.02" width="4.95" height="4.95" style="fill:#fff"/><rect x="223.4" y="149.13" width="4.95" height="4.95" style="fill:#fff"/><rect x="223.4" y="159.24" width="4.95" height="4.95" style="fill:#fff"/><path d="M149.16,108.66l-2.72-3.77a16.55,16.55,0,1,0-21.39-1.72,17.42,17.42,0,0,0,2,1.69l-2.74,3.75a22.26,22.26,0,0,1-2.51-2.15,21.2,21.2,0,1,1,30,0A21.57,21.57,0,0,1,149.16,108.66Z" style="fill:red"/><polygon points="79.37 178.4 75.3 175.57 136.75 87.14 198.2 175.16 194.14 177.99 136.76 95.81 79.37 178.4" style="fill:#fff"/><path d="M153.61,170.58c-13.38-36.56-40.2-44.15-41.38-44.47L111,130.89c.07,0,6.91,1.94,15.14,8.44,6.83,5.41,15.91,15.1,22.21,31.25Z" style="fill:#fff"/><path d="M164.83,170.58c-17.72-43.07-44.82-51.48-46-51.83l-1.4,4.75c.07,0,6.85,2.11,15.59,9.47,7.53,6.34,18,17.9,26.44,37.61Z" style="fill:#fff"/><rect x="72.7" y="165.64" width="21.6" height="4.95" transform="translate(-102.21 140.77) rotate(-55.21)" style="fill:#ababab"/><rect x="187.65" y="157.34" width="4.95" height="21.14" transform="translate(-61.89 139.07) rotate(-34.92)" style="fill:#ababab"/><path d="M155.5,211.93a27.08,27.08,0,0,0-38.29,0l-15.6-15.6a49.09,49.09,0,0,1,69.5,0Z" style="fill:#ababab"/><path d="M117.32,194.7l2.87-1.22a2.26,2.26,0,0,1,1.75-.15,1.33,1.33,0,0,1,.74.75v0a1.41,1.41,0,0,1-.33,1.61,1.48,1.48,0,0,1,1.69.9v0c.4,1-.13,1.88-1.47,2.44l-2.89,1.23Zm3.44,1.17c.47-.2.67-.47.53-.8h0c-.13-.31-.44-.38-.91-.19l-1,.43.42,1Zm1.13,2c.47-.2.66-.5.52-.83h0c-.13-.31-.46-.41-1-.19l-1.18.51.44,1Z" style="fill:#fff"/><path d="M148,197.45l1.27-.72a3.11,3.11,0,0,0,1.59,1.37c.43.16.71.1.8-.14v0c.08-.23-.05-.44-.76-.91-1.11-.73-1.92-1.42-1.48-2.6h0c.4-1.06,1.52-1.51,2.89-1a3.84,3.84,0,0,1,2.06,1.64l-1.21.82a3.06,3.06,0,0,0-1.38-1.16c-.38-.14-.63-.05-.71.15v0c-.1.26.05.45.77.92,1.2.78,1.86,1.51,1.46,2.58h0c-.43,1.17-1.61,1.51-3,1A4.25,4.25,0,0,1,148,197.45Z" style="fill:#fff"/><path d="M135.52,190.33h-1.83v-1.48H139v1.48H137.2v8.16h-1.68Z" style="fill:#fff"/><rect x="142.49" y="193.17" width="2.23" height="2.23" transform="translate(-76.69 95.09) rotate(-29.29)" style="fill:#fff"/><rect x="127.81" y="193.17" width="2.23" height="2.23" transform="translate(-103.61 211.44) rotate(-60.65)" style="fill:#fff"/></svg>