<svg xmlns="http://www.w3.org/2000/svg" viewBox="0 0 50 50"><path d="M50,25A25,25,0,1,1,25,0,25,25,0,0,1,50,25Z" style="fill:#fff"/><polygon points="41.05 27.28 18.13 27.28 9.07 18.23 10.2 17.09 18.79 25.68 41.05 25.68 41.05 27.28" style="fill:#959595"/><rect x="12.57" y="29.48" width="7.5" height="1.6" transform="translate(-17.97 33.06) rotate(-66.31)" style="fill:#959595"/><rect x="33.92" y="26.3" width="1.6" height="7.24" transform="translate(-7.66 12.48) rotate(-18.39)" style="fill:#959595"/><rect x="19.98" y="10.11" width="4.43" height="1.6" transform="translate(-2.14 15.33) rotate(-36.46)" style="fill:#959595"/><rect x="24.86" y="13.99" width="4.43" height="1.6" transform="translate(2.68 33.68) rotate(-66.41)" style="fill:#959595"/><rect x="32.43" y="13.51" width="1.6" height="4.43" transform="translate(-1.55 3.82) rotate(-6.44)" style="fill:#959595"/></svg>