<svg xmlns="http://www.w3.org/2000/svg" viewBox="0 0 303.86 194.97"><g id="Layer_2" data-name="Layer 2"><g id="Layer_1-2" data-name="Layer 1"><path d="M300.38,156.4c-38.8-18.77-97.48-28.93-161-27.91-50.92.83-99.41,8.91-136.56,22.75L0,143.75c38-14.16,87.42-22.42,139.22-23.26C204,119.41,264,129.91,303.86,149.2Z" style="fill:#c8c8c8"/><path d="M90.21,69.23A16.84,16.84,0,0,0,73.37,86.07v58.27H107V86.07A16.84,16.84,0,0,0,90.21,69.23Z" style="fill:#fff"/><path d="M111,148.34H69.37V86.07a20.84,20.84,0,1,1,41.67,0Zm-33.67-8H103V86.07a12.84,12.84,0,1,0-25.67,0Z" style="fill:#746163"/><path d="M181.83,106.62a11.57,11.57,0,0,0-11.57,11.57v27.14H193.4V118.19A11.57,11.57,0,0,0,181.83,106.62Z" style="fill:#fff"/><path d="M197.4,149.33H166.26V118.19a15.57,15.57,0,1,1,31.14,0Zm-23.14-8H189.4V118.19a7.57,7.57,0,0,0-15.14,0Z" style="fill:#746163"/><path d="M220,154.88c0,10.75-32.47,19.47-72.52,19.47S75,165.63,75,154.88s32.46-19.47,72.51-19.47S220,144.13,220,154.88Z" style="fill:#fff"/><path d="M147.5,178.35c-19.71,0-38.29-2.07-52.31-5.84C79.13,168.2,71,162.27,71,154.88s8.14-13.32,24.2-17.63c14-3.77,32.6-5.84,52.31-5.84s38.29,2.07,52.32,5.84c16.06,4.31,24.2,10.24,24.2,17.63s-8.14,13.32-24.2,17.63C185.79,176.28,167.21,178.35,147.5,178.35Zm0-38.94c-44.33,0-68.51,10.22-68.51,15.47s24.18,15.47,68.51,15.47S216,160.13,216,154.88,191.83,139.41,147.5,139.41Z" style="fill:#40a1a7"/><path d="M152.29,192.39v-8c22.17,0,43-2.85,58.53-8,20.44-6.79,22-14,22-16.07h8C240.84,181.14,195.22,192.39,152.29,192.39Z" style="fill:#e5e5e5"/><path d="M73.37,126.5a16.84,16.84,0,0,0-16.83,16.84v28.12L90.21,180V143.34A16.84,16.84,0,0,0,73.37,126.5Z" style="fill:#fff"/><path d="M94.21,185.13,52.54,174.58V143.34a20.84,20.84,0,1,1,41.67,0ZM60.54,168.35l25.67,6.5V143.34a12.84,12.84,0,1,0-25.67,0Z" style="fill:#746163"/><path d="M30.51,169.67s49-5,79.26,22.33" style="fill:#fff"/><path d="M107.09,195c-28.56-25.83-75.7-21.37-76.17-21.32l-.82-8c2.07-.22,51.13-4.9,82.35,23.35Z" style="fill:#c8c8c8"/><line x1="103.22" y1="156.7" x2="114.71" y2="156.7" style="fill:#fff"/><rect x="103.22" y="152.7" width="11.49" height="8" style="fill:#40a1a7"/><path d="M193.4,94a11.19,11.19,0,1,1-11.19-11.19A11.19,11.19,0,0,1,193.4,94Z" style="fill:#fff"/><path d="M182.21,109.21A15.19,15.19,0,1,1,197.4,94,15.2,15.2,0,0,1,182.21,109.21Zm0-22.38A7.19,7.19,0,1,0,189.4,94,7.2,7.2,0,0,0,182.21,86.83Z" style="fill:#746163"/><path d="M130.28,96.25h-8a23.69,23.69,0,0,1,2.52-11.17,16,16,0,0,0,1.8-7.86,16,16,0,0,0-1.8-7.87,23.66,23.66,0,0,1-2.52-11.17A23.69,23.69,0,0,1,124.8,47a16,16,0,0,0,1.8-7.86h8a23.69,23.69,0,0,1-2.52,11.17,16.07,16.07,0,0,0-1.8,7.86,16,16,0,0,0,1.8,7.86,23.74,23.74,0,0,1,2.52,11.18,23.69,23.69,0,0,1-2.52,11.17A16.07,16.07,0,0,0,130.28,96.25Z" style="fill:#e5e5e5"/><path d="M145.12,100.85h-8a23.71,23.71,0,0,1,2.51-11.17,16,16,0,0,0,1.81-7.87A16,16,0,0,0,139.63,74a23.71,23.71,0,0,1-2.51-11.17h8a16,16,0,0,0,1.8,7.86,23.69,23.69,0,0,1,2.52,11.17A23.7,23.7,0,0,1,146.92,93,16,16,0,0,0,145.12,100.85Z" style="fill:#e5e5e5"/><path d="M211.15,81.81h-8A16,16,0,0,0,201.34,74a23.69,23.69,0,0,1-2.52-11.17,23.69,23.69,0,0,1,2.52-11.17,16,16,0,0,0,1.81-7.86h8a23.69,23.69,0,0,1-2.52,11.17,15.92,15.92,0,0,0-1.81,7.86,16,16,0,0,0,1.81,7.86A23.69,23.69,0,0,1,211.15,81.81Z" style="fill:#e5e5e5"/><path d="M115.93,38.07h-8a16,16,0,0,0-1.8-7.86A23.74,23.74,0,0,1,103.61,19a23.69,23.69,0,0,1,2.52-11.17A16.07,16.07,0,0,0,107.93,0h8a23.69,23.69,0,0,1-2.52,11.17,16,16,0,0,0-1.8,7.86,16,16,0,0,0,1.8,7.87A23.66,23.66,0,0,1,115.93,38.07Z" style="fill:#e5e5e5"/><line x1="127" y1="147.33" x2="138.49" y2="147.33" style="fill:#fff"/><rect x="127" y="143.33" width="11.49" height="8" style="fill:#40a1a7"/><line x1="166.99" y1="154.88" x2="178.49" y2="154.88" style="fill:#fff"/><rect x="166.99" y="150.88" width="11.49" height="8" style="fill:#40a1a7"/></g></g></svg>