<svg xmlns="http://www.w3.org/2000/svg" viewBox="0 0 244.59 148.23"><g id="Layer_2" data-name="Layer 2"><g id="Layer_1-2" data-name="Layer 1"><rect x="-14.8" y="95.13" width="73.05" height="8" transform="translate(-74.98 68.38) rotate(-60)" style="fill:#c8c8c8"/><polygon points="200.74 132.76 169.99 79.49 156.03 103.66 136.31 69.5 143.24 65.5 156.03 87.66 169.99 63.49 207.67 128.76 200.74 132.76" style="fill:#c8c8c8"/><polygon points="200.74 132.76 169.99 79.49 156.03 103.66 134.56 66.46 146.21 46.28 153.14 50.28 143.79 66.46 156.03 87.66 169.99 63.49 207.67 128.76 200.74 132.76" style="fill:#c8c8c8"/><rect x="213.32" y="41.91" width="8" height="95.23" transform="translate(-15.65 120.65) rotate(-30)" style="fill:#c8c8c8"/><path d="M105.42,81.22c-29.77,0-37-10.44-37.76-11.64l-1.24-2L105.42,0l39,67.56-1.25,2C142.45,70.78,135.2,81.22,105.42,81.22ZM76.09,66.81c3.12,2.3,11.22,6.41,29.33,6.41s26.22-4.11,29.34-6.41L105.42,16Z" style="fill:#aae5e5"/><path d="M55.53,77.72c-15.46,0-18.93-7.89-19.27-8.79l-.69-1.78,20-34.57,20,34.57-.68,1.78C74.46,69.83,71,77.72,55.53,77.72ZM44.83,67.1c1.48,1.13,4.59,2.62,10.7,2.62s9.22-1.49,10.7-2.61L55.53,48.58Z" style="fill:#aae5e5"/><path d="M170.39,62.26c-9.34,0-16.26-2-20.58-6.06a12.15,12.15,0,0,1-4.13-7.63l-.09-1.22,26-45,26.26,45.49-.52,1.67C197.16,50,193.06,62.26,170.39,62.26ZM154,48.81c1.22,2.29,5.63,5.45,16.4,5.45,12.12,0,16.84-3.84,18.52-5.95l-17.32-30Z" style="fill:#aae5e5"/><polygon points="90.96 148.23 71.07 113.78 51.18 148.23 44.26 144.23 71.07 97.78 97.89 144.23 90.96 148.23" style="fill:#c8c8c8"/></g></g></svg>