<svg xmlns="http://www.w3.org/2000/svg" viewBox="0 0 280.94 206.14"><g id="Layer_2" data-name="Layer 2"><g id="Layer_1-2" data-name="Layer 1"><path d="M3.24,117,0,110.55c36.59-18.43,91.93-29,151.83-29,47.92,0,93.77,6.9,129.11,19.42l-2.41,6.79c-34.58-12.26-79.57-19-126.7-19C93,88.74,38.86,99,3.24,117Z" style="fill:#e5e5e5"/><polygon points="93.95 120 63.84 87.73 33.72 120 27.87 114.54 63.84 76.01 99.8 114.54 93.95 120" style="fill:#3f8e00"/><polygon points="93.95 141.39 63.84 109.13 33.72 141.39 27.87 135.94 63.84 97.4 99.8 135.94 93.95 141.39" style="fill:#3f8e00"/><polygon points="141.45 75.87 111.33 43.6 81.22 75.87 75.37 70.41 111.33 31.88 147.3 70.41 141.45 75.87" style="fill:#3f8e00"/><polygon points="141.45 97.26 111.33 64.99 81.22 97.26 75.37 91.8 111.33 53.27 147.3 91.8 141.45 97.26" style="fill:#3f8e00"/><polygon points="226.95 65.39 196.84 33.12 166.73 65.39 160.88 59.93 196.84 21.39 232.8 59.93 226.95 65.39" style="fill:#3f8e00"/><polygon points="226.95 86.78 196.84 54.51 166.73 86.78 160.88 81.32 196.84 42.78 232.8 81.32 226.95 86.78" style="fill:#3f8e00"/><polygon points="264.45 170.38 234.34 138.1 204.23 170.38 198.38 164.92 234.34 126.38 270.3 164.92 264.45 170.38" style="fill:#3f8e00"/><polygon points="264.45 191.77 234.34 159.5 204.23 191.77 198.38 186.31 234.34 147.77 270.3 186.31 264.45 191.77" style="fill:#3f8e00"/><rect x="59.83" y="65.13" width="8" height="90" style="fill:#802600"/><rect x="107.33" y="20.61" width="8" height="91.54" style="fill:#802600"/><rect x="230.34" y="116.08" width="8" height="90.06" style="fill:#802600"/><rect x="192.84" y="11.63" width="8" height="86.86" style="fill:#802600"/><polygon points="93.95 98.61 63.84 66.34 33.72 98.61 27.87 93.15 63.84 54.61 99.8 93.15 93.95 98.61" style="fill:#3f8e00"/><polygon points="141.45 54.48 111.33 22.21 81.22 54.48 75.37 49.02 111.33 10.48 147.3 49.02 141.45 54.48" style="fill:#3f8e00"/><polygon points="226.95 44 196.84 11.73 166.73 44 160.88 38.54 196.84 0 232.8 38.54 226.95 44" style="fill:#3f8e00"/><polygon points="264.45 148.98 234.34 116.71 204.23 148.98 198.38 143.53 234.34 104.99 270.3 143.53 264.45 148.98" style="fill:#3f8e00"/></g></g></svg>