<svg xmlns="http://www.w3.org/2000/svg" viewBox="0 0 228.33 265.26"><g id="Layer_2" data-name="Layer 2"><g id="Layer_1-2" data-name="Layer 1"><path d="M114.17,179.92c-29.73,0-57.71-2.69-78.81-7.59C11.9,166.88,0,159.48,0,150.34s11.9-16.53,35.36-22c21.1-4.9,49.08-7.59,78.81-7.59s57.7,2.69,78.8,7.59c23.46,5.45,35.36,12.85,35.36,22s-11.9,16.54-35.36,22C171.87,177.23,143.89,179.92,114.17,179.92Zm0-51.15c-29.14,0-56.48,2.62-77,7.38C8.33,142.85,8,150,8,150.34s.33,7.5,29.17,14.2c20.52,4.76,47.86,7.38,77,7.38s56.47-2.62,77-7.38c28.84-6.7,29.17-13.89,29.17-14.2s-.33-7.49-29.17-14.19C170.64,131.39,143.29,128.77,114.17,128.77Z" style="fill:#e5e5e5"/><path d="M195.66,150.32s2.26-22.49,23.33-25.68c0,0,9.67,19-12.29,39.16" style="fill:#fff"/><path d="M206.7,167.8a4,4,0,0,1-2.71-7c14.7-13.52,13.78-26.11,12.4-31.56-14.86,4.36-16.73,21.25-16.75,21.43a4,4,0,1,1-8-.8c.89-8.85,7.61-26.34,26.71-29.24l2.85-.43,1.31,2.57c.45.89,10.78,21.92-13.14,43.92A4,4,0,0,1,206.7,167.8Z" style="fill:#7cae41"/><path d="M153.45,136.58s19.64-40.69,21-42.75a4.81,4.81,0,0,1,6-2c1.61.54,2.79,3.4,1.89,5.28S168.56,134.52,168,137.92" style="fill:#fff"/><path d="M168,141.89a3.68,3.68,0,0,1-.73-.07,4,4,0,0,1-3.21-4.59c.69-3.92,13.25-38.38,14.6-41.62a.29.29,0,0,0,0-.09c-.46,0-.6.17-.82.5-1.14,1.89-13.32,27-20.72,42.3a4,4,0,1,1-7.21-3.47c4.63-9.6,19.85-41.09,21.23-43.2a8.83,8.83,0,0,1,10.61-3.58,7.24,7.24,0,0,1,4.22,4.17,8,8,0,0,1,0,6.62c-1.1,2.46-13.4,36.63-14,39.77A4,4,0,0,1,168,141.89ZM178.7,95.42h0Z" style="fill:#228041"/><path d="M74.63,142.93S82.28,98.4,83,96.05a4.82,4.82,0,0,1,5.22-3.55c1.69.08,3.61,2.5,3.27,4.55s-2.91,39.73-2.55,43.16" style="fill:#fff"/><path d="M74.64,146.93a4,4,0,0,1-4-4.68c1.8-10.5,7.75-45,8.49-47.38a8.83,8.83,0,0,1,9.21-6.36,7.24,7.24,0,0,1,5.21,2.84,8.07,8.07,0,0,1,1.84,6.36c-.38,2.67-2.78,38.9-2.52,42.1a4,4,0,0,1-3.6,4.35A4,4,0,0,1,85,140.64c-.43-4,2.15-40.54,2.55-44l0-.09c-.46.08-.54.33-.66.7-.57,2.14-5.36,29.6-8.25,46.39A4,4,0,0,1,74.64,146.93Z" style="fill:#228041"/><path d="M169.66,140S171.92,117.5,193,114.3c0,0,9.67,19-12.29,39.16" style="fill:#fff"/><path d="M180.7,157.46a4,4,0,0,1-2.71-6.94C192.73,137,191.81,124.43,190.4,119c-14.86,4.35-16.74,21.25-16.76,21.43a4,4,0,1,1-8-.8c.89-8.85,7.61-26.34,26.71-29.24l2.85-.43,1.31,2.57c.45.88,10.78,21.92-13.14,43.92A4,4,0,0,1,180.7,157.46Z" style="fill:#7cae41"/><path d="M180.94,148.58s2.26-22.49,23.33-25.69c0,0,9.67,19-12.29,39.16" style="fill:#fff"/><path d="M192,166.05a4,4,0,0,1-2.71-6.94c14.7-13.52,13.78-26.11,12.4-31.56-14.86,4.36-16.73,21.25-16.75,21.43a4,4,0,1,1-8-.8c.89-8.85,7.61-26.35,26.71-29.24l2.85-.43,1.31,2.57c.45.88,10.78,21.92-13.14,43.92A4,4,0,0,1,192,166.05Z" style="fill:#7cae41"/><path d="M71.38,142.84S57.24,125.21,70,108.17c0,0,20.18,6.76,18.65,36.56" style="fill:#fff"/><path d="M88.69,148.73h-.2a4,4,0,0,1-3.79-4.2c1-20-8.42-28.3-13.25-31.22-7.53,13.39,2.59,26.46,3,27.05a4,4,0,0,1-6.24,5c-5.57-6.93-13-24.13-1.42-39.57l1.73-2.31,2.74.92c.94.32,23,8.1,21.38,40.55A4,4,0,0,1,88.69,148.73Z" style="fill:#7cae41"/><path d="M156.34,130.61s-10.44-6-10.26-21" style="fill:#fff"/><path d="M156.34,134.61a4,4,0,0,1-2-.53c-.51-.29-12.47-7.38-12.26-24.56a4,4,0,1,1,8,.1c-.15,12.54,8.17,17.48,8.26,17.53a4,4,0,0,1-2,7.46Z" style="fill:#228041"/><path d="M160.94,121.11s-8.6-2.77-6.28-17.26" style="fill:#fff"/><path d="M160.94,125.11a4,4,0,0,1-1.22-.19c-.49-.16-11.84-4-9-21.71a4,4,0,0,1,7.9,1.27c-1.73,10.8,3.51,12.81,3.56,12.82a4,4,0,0,1-1.23,7.81Z" style="fill:#228041"/><path d="M92.89,176.25h48a39.45,39.45,0,1,0-48,0Z" style="fill:#fff"/><path d="M86.8,176.25h13.46a35.44,35.44,0,1,1,33.28,0H147a43.45,43.45,0,1,0-60.19,0Z" style="fill:#dc9d41"/><path d="M92.89,176.25h48a39.45,39.45,0,1,0-48,0Z" style="fill:#fff"/><path d="M86.8,176.25h13.46a35.44,35.44,0,1,1,33.28,0H147a43.45,43.45,0,1,0-60.19,0Z" style="fill:#dc9d41"/><line x1="118.03" y1="118.51" x2="132.84" y2="4.48" style="fill:#fff"/><rect x="63.94" y="57.5" width="122.99" height="8" transform="translate(48.3 177.97) rotate(-82.6)" style="fill:#b1804e"/><path d="M143.39,145a26.49,26.49,0,1,1-26.49-26.5A26.48,26.48,0,0,1,143.39,145Z" style="fill:#fff"/><path d="M116.9,175.46A30.49,30.49,0,1,1,147.39,145,30.51,30.51,0,0,1,116.9,175.46Zm0-53A22.49,22.49,0,1,0,139.39,145,22.52,22.52,0,0,0,116.9,122.48Z" style="fill:#dc9d41"/><line x1="121.03" y1="131.38" x2="149.21" y2="16.02" style="fill:#fff"/><rect x="71.74" y="69.7" width="126.75" height="8" transform="translate(31.46 187.47) rotate(-76.27)" style="fill:#b1804e"/><path d="M130.49,145a13.6,13.6,0,1,1-13.59-13.6A13.6,13.6,0,0,1,130.49,145Z" style="fill:#fff"/><path d="M116.9,162.57A17.6,17.6,0,1,1,134.49,145,17.62,17.62,0,0,1,116.9,162.57Zm0-27.19a9.6,9.6,0,1,0,9.59,9.6A9.61,9.61,0,0,0,116.9,135.38Z" style="fill:#dc9d41"/><path d="M137.73,162.19c0,7.51-9,13.6-20.16,13.6S97.4,169.7,97.4,162.19s9-13.59,20.17-13.59S137.73,154.68,137.73,162.19Z" style="fill:#fff"/><path d="M102.89,176.25h29.35c5.8-3.19,9.49-8.25,9.49-14.06,0-9.86-10.61-17.59-24.16-17.59S93.4,152.33,93.4,162.19C93.4,168,97.09,173.06,102.89,176.25Zm14.68-23.65c8.61,0,16.16,4.48,16.16,9.59s-7.55,9.6-16.16,9.6-16.17-4.49-16.17-9.6S109,152.6,117.57,152.6Z" style="fill:#dc9d41"/><path d="M151.61,176.85c8.92-.33,17.9-2.34,26.7-3.8,3.15-.52,6.32-1.08,9.45-1.81,1.23-.54,2.47-1.07,3.71-1.59a39.45,39.45,0,0,0-78.13,7.72c0,.42,0,.84,0,1.26C124.87,173.94,139.68,177.3,151.61,176.85Z" style="fill:#fff"/><path d="M113.24,178.68a28.85,28.85,0,0,1,4.1-1.33,35.44,35.44,0,0,1,70.35-6.1h.07c2.48-1.08,5-2.15,7.46-3.13a43.44,43.44,0,0,0-85.88,9.26c0,.44,0,.88,0,1.32Z" style="fill:#dc9d41"/><path d="M151.61,176.85c8.92-.33,17.9-2.34,26.7-3.8,3.15-.52,6.32-1.08,9.45-1.81,1.23-.54,2.47-1.07,3.71-1.59a39.45,39.45,0,0,0-78.13,7.72c0,.42,0,.84,0,1.26C124.87,173.94,139.68,177.3,151.61,176.85Z" style="fill:#fff"/><path d="M113.24,178.68a28.85,28.85,0,0,1,4.1-1.33,35.44,35.44,0,0,1,70.35-6.1h.07c2.48-1.08,5-2.15,7.46-3.13a43.44,43.44,0,0,0-85.88,9.26c0,.44,0,.88,0,1.32Z" style="fill:#dc9d41"/><path d="M151.61,176.85c8.92-.33,17.9-2.34,26.7-3.8l.59-.1a26.49,26.49,0,0,0-52.58,3.22C134.83,175.83,143.83,177.14,151.61,176.85Z" style="fill:#fff"/><path d="M130.33,176.11A22.49,22.49,0,0,1,175,173.63l3.35-.58c1.51-.25,3-.51,4.53-.79a30.48,30.48,0,0,0-60.52,4.2A64.2,64.2,0,0,1,130.33,176.11Z" style="fill:#dc9d41"/><path d="M151.61,176.85a115,115,0,0,0,14.58-1.67,13.58,13.58,0,0,0-27,1.3C143.52,176.74,147.72,177,151.61,176.85Z" style="fill:#fff"/><path d="M143.22,176.71a9.58,9.58,0,0,1,19-.91c2.63-.39,5.26-.84,7.88-1.31a17.57,17.57,0,0,0-34.87,1.78C137.93,176.4,140.61,176.57,143.22,176.71Z" style="fill:#dc9d41"/><path d="M149.5,176.89a3.32,3.32,0,0,1,6.5-.34l1.35-.13a4.65,4.65,0,0,0-9.19.46Z" style="fill:#dc9d41"/><path d="M130.72,177.94a39.44,39.44,0,0,0-39-33.72l33.72,33.72Z" style="fill:#fff"/><path d="M91.7,148.22a35.49,35.49,0,0,1,35,29.72h8.08a43.49,43.49,0,0,0-43-37.72,4,4,0,0,0,0,8Z" style="fill:#dc9d41"/><path d="M130.72,177.94a39.44,39.44,0,0,0-39-33.72l33.72,33.72Z" style="fill:#fff"/><path d="M91.7,148.22a35.49,35.49,0,0,1,35,29.72h8.08a43.49,43.49,0,0,0-43-37.72,4,4,0,0,0,0,8Z" style="fill:#dc9d41"/><path d="M117.56,177.94A26.5,26.5,0,0,0,91.7,157.17l20.77,20.77Z" style="fill:#fff"/><path d="M91.7,161.17a22.53,22.53,0,0,1,21.75,16.77h8.19A30.54,30.54,0,0,0,91.7,153.17a4,4,0,0,0,0,8Z" style="fill:#dc9d41"/><path d="M108.49,177.94a15,15,0,0,0-13.32-8.16l8.17,8.16Z" style="fill:#fff"/><path d="M95.17,173.78a11,11,0,0,1,8.59,4.16h9.09a19,19,0,0,0-17.68-12.16,4,4,0,1,0,0,8Z" style="fill:#aa5841"/><path d="M39.54,131.35c8.42-11.82,7.87-11.07,10.82-16.6l27.55,16.46C70,152.5,70,152.36,63.24,170.56" style="fill:#fff"/><path d="M67,172l-7.5-2.8.76-2C66,151.81,66.48,150.39,73,132.93l-21.1-12.6c-1.51,2.68-3,4.8-9.09,13.34L36.28,129C44,118.2,44,118.2,46.29,113.89l2.52-4.73,34,20.32-1.17,3.12c-7.63,20.47-7.88,21.14-13.9,37.32Z" style="fill:#ff5841"/><path d="M9.53,155.53S16,138.35,30.64,126.91L57.11,143s-8.23,14.31-8.58,26.48" style="fill:#fff"/><path d="M52.53,169.6l-8-.23c.28-9.39,4.71-19.66,7.3-24.89L31,131.8c-12.09,10.52-17.66,25-17.72,25.14l-7.48-2.81c.27-.74,7-18.37,22.39-30.37l2.18-1.7,32.17,19.56-2,3.39C60.51,145.14,52.85,158.61,52.53,169.6Z" style="fill:#ff5841"/><path d="M114.17,179.92c-29.73,0-57.71-2.69-78.81-7.59C11.9,166.88,0,159.48,0,150.34H8c0,.31.33,7.5,29.17,14.2,20.52,4.76,47.86,7.38,77,7.38s56.47-2.62,77-7.38c28.84-6.7,29.17-13.89,29.17-14.2h8c0,9.14-11.9,16.54-35.36,22C171.87,177.23,143.89,179.92,114.17,179.92Z" style="fill:#e5e5e5"/><path d="M84.39,157.91a6.5,6.5,0,1,1-6.5-6.49A6.5,6.5,0,0,1,84.39,157.91Z" style="fill:#fff"/><path d="M77.89,168.41a10.5,10.5,0,1,1,10.5-10.5A10.5,10.5,0,0,1,77.89,168.41Zm0-13a2.5,2.5,0,1,0,2.5,2.49A2.5,2.5,0,0,0,77.89,155.42Z" style="fill:#aa5841"/><path d="M92.86,147.09a6.5,6.5,0,1,1-6.49-6.49A6.49,6.49,0,0,1,92.86,147.09Z" style="fill:#fff"/><path d="M86.37,157.59a10.5,10.5,0,1,1,10.49-10.5A10.51,10.51,0,0,1,86.37,157.59Zm0-13a2.5,2.5,0,1,0,2.49,2.49A2.5,2.5,0,0,0,86.37,144.6Z" style="fill:#aa5841"/><path d="M99.36,160.08a6.5,6.5,0,1,1-6.5-6.49A6.5,6.5,0,0,1,99.36,160.08Z" style="fill:#fff"/><path d="M92.86,170.58a10.5,10.5,0,1,1,10.5-10.5A10.51,10.51,0,0,1,92.86,170.58Zm0-13a2.5,2.5,0,1,0,2.5,2.49A2.5,2.5,0,0,0,92.86,157.59Z" style="fill:#aa5841"/><path d="M107,149.26a6.5,6.5,0,1,1-6.49-6.5A6.49,6.49,0,0,1,107,149.26Z" style="fill:#fff"/><path d="M100.49,159.75A10.5,10.5,0,1,1,111,149.26,10.51,10.51,0,0,1,100.49,159.75Zm0-13a2.5,2.5,0,1,0,2.49,2.5A2.5,2.5,0,0,0,100.49,146.76Z" style="fill:#aa5841"/><path d="M124.15,170.16a6.5,6.5,0,1,1-6.49-6.5A6.49,6.49,0,0,1,124.15,170.16Z" style="fill:#fff"/><path d="M117.66,180.65a10.5,10.5,0,1,1,10.49-10.49A10.5,10.5,0,0,1,117.66,180.65Zm0-13a2.5,2.5,0,1,0,2.49,2.5A2.5,2.5,0,0,0,117.66,167.66Z" style="fill:#aa5841"/><path d="M111.16,166.58a6.5,6.5,0,1,1-6.49-6.5A6.5,6.5,0,0,1,111.16,166.58Z" style="fill:#fff"/><path d="M104.67,177.07a10.5,10.5,0,1,1,10.49-10.49A10.51,10.51,0,0,1,104.67,177.07Zm0-13a2.5,2.5,0,1,0,2.49,2.5A2.5,2.5,0,0,0,104.67,164.08Z" style="fill:#aa5841"/><path d="M89.7,170.32a6.5,6.5,0,1,1-6.49-6.5A6.49,6.49,0,0,1,89.7,170.32Z" style="fill:#fff"/><path d="M83.21,180.81A10.5,10.5,0,1,1,93.7,170.32,10.5,10.5,0,0,1,83.21,180.81Zm0-13a2.5,2.5,0,1,0,2.49,2.5A2.5,2.5,0,0,0,83.21,167.82Z" style="fill:#aa5841"/><path d="M76.1,168.06a3.65,3.65,0,1,1-3.65-3.65A3.65,3.65,0,0,1,76.1,168.06Z" style="fill:#fff"/><path d="M72.45,175.71a7.65,7.65,0,1,1,7.65-7.65A7.66,7.66,0,0,1,72.45,175.71Zm0-8a.35.35,0,0,0,0,.7.35.35,0,0,0,0-.7Z" style="fill:#aa5841"/><path d="M114.17,265.26A114.31,114.31,0,0,1,0,151.06H8a106.17,106.17,0,1,0,212.33,0h8A114.31,114.31,0,0,1,114.17,265.26Z" style="fill:#e5e5e5"/><path d="M176.46,165.49s4.26,6.84,2.81,18.17a24.11,24.11,0,0,0,5.18,18.48" style="fill:#fff"/><path d="M184.43,206.14a4,4,0,0,1-2.92-1.28,28.13,28.13,0,0,1-6.2-21.71c1.22-9.61-2.12-15.34-2.26-15.58a4,4,0,0,1,6.81-4.2c.21.33,5,8.21,3.38,20.8a20.13,20.13,0,0,0,4.16,15.28,4,4,0,0,1-3,6.69Z" style="fill:#dc9d41"/></g></g></svg>