<svg xmlns="http://www.w3.org/2000/svg" viewBox="0 0 272.67 142.53"><g id="Layer_2" data-name="Layer 2"><g id="Layer_1-2" data-name="Layer 1"><path d="M271,109.3c-16-3.4-38.18-10.3-53.34-23.87-16.35-14.62-23.58-22.75-33.32-36.82A13,13,0,0,1,180.88,53a12.86,12.86,0,0,1-7.28,2.83c-2.69,5.35-9.58,16.76-19.34,16.76S136.58,62,133.52,57.31H110.84c-7.89,0-12.73-7.07-15.32-12.7-9.1,10.17-21.25,23.64-33.7,37.13-12,13-32.44,21.47-60.78,25.2L0,99c18.17-2.39,42.63-8.27,55.94-22.7C70.51,60.53,84.67,44.76,94,34.32l4.41-4.94,2.45,6.6c.9,3.46,4.66,13.33,10,13.33h27.23l1.15,2c2,3.45,9,13.29,15,13.29,5.31,0,11.16-9.71,13.16-14.41l1.27-3,3.2.64h0a5.47,5.47,0,0,0,4-1.06c1.63-1.38,2.5-4.24,2.5-8.26V25.28l7.33,11c12.4,18.67,18.8,26.6,37.3,43.15,10.81,9.67,28.45,17.48,49.68,22Z" style="fill:#c8c8c8"/><path d="M206.78,104.9c-18.59-9.07-38.44-49.66-39.28-51.39L174.7,50c5.36,11,22.21,41.16,35.59,47.69Z" style="fill:#c8c8c8"/><path d="M129.17,93.49l-7.69-2.22c4-13.79,8.08-38,8.12-38.26l7.89,1.33C137.32,55.35,133.28,79.26,129.17,93.49Z" style="fill:#c8c8c8"/><path d="M154.26,72.61c-9.67,0-17.68-10.62-20.74-15.3H110.84c-12,0-16.94-16.36-17.68-19.11l-.78-2.08L94,34.32c8.58-9.63,14.19-16,14.25-16.08l1.19-1.36h20.8C132.45,8.79,136.14.46,141.91.46c.33,0,.88-.07,1.47-.14,6.06-.78,17.35-2.23,34.88,24.67,2.73,4.2,5.18,7.94,7.43,11.33l.67,1v1.21c0,6.64-1.85,11.51-5.48,14.49a12.86,12.86,0,0,1-7.28,2.83C170.91,61.2,164,72.61,154.26,72.61ZM101.46,38c1.48,4.27,4.87,11.35,9.38,11.35h27.23l1.15,2c2,3.45,9,13.29,15,13.29,5.31,0,11.16-9.71,13.16-14.41l1.27-3,3.2.64h0a5.47,5.47,0,0,0,4-1.06c1.47-1.24,2.32-3.68,2.47-7.09-2.07-3.13-4.3-6.55-6.78-10.34C156.77,6.66,148.72,7.7,144.4,8.25c-.65.08-1.27.16-1.89.2C141,9.88,138.6,16,137.23,21.8l-.72,3.08H113.05C111.13,27.06,107,31.74,101.46,38Z" style="fill:#aae5e5"/><rect x="63.98" y="117.2" width="56.89" height="8" style="fill:#c8c8c8"/><rect x="142.65" y="134.53" width="68.52" height="8" style="fill:#c8c8c8"/></g></g></svg>